<svg width="500" height="500" viewBox="0 0 500 500" fill="none" xmlns="http://www.w3.org/2000/svg">
<path d="M355.25 75.5C389.5 87.25 422 109.5 433.75 140.5C445.25 171.25 436 210.5 434 248.75C431.75 287 436.75 323.75 420.5 346.75C404.25 369.5 366.75 378.5 334.75 388C302.75 397.5 276.5 407.75 242.5 420.5C208.75 433.5 167.25 449 137 438.75C106.75 428.25 87.25 391.5 75.5 355.75C63.75 320 59.5 285 60.75 250.75C62 216.5 68.75 183 87.25 158.5C105.5 134 135.5 118.75 164.5 104C193.75 89.25 221.75 75 253.75 68.75C285.5 62.25 321.25 63.5 355.25 75.5Z" fill="#D66D75"/>
<path d="M195.33 286.979H184.856V308H163.836V286.979H111.321L123.04 202.971H144.061L134.905 266.032H163.836V213.518H184.856V266.032H195.33V286.979ZM271.795 255.485C271.795 243.815 269.842 235.148 265.936 229.484C262.078 223.82 256.683 220.988 249.749 220.988C242.864 220.988 237.518 223.796 233.709 229.411C229.9 235.026 227.996 243.718 227.996 255.485C227.996 267.155 229.9 275.822 233.709 281.486C237.518 287.15 242.864 289.982 249.749 289.982C253.216 289.982 256.316 289.299 259.051 287.932C261.785 286.516 264.08 284.392 265.936 281.56C267.84 278.728 269.28 275.163 270.257 270.866C271.282 266.521 271.795 261.394 271.795 255.485ZM291.79 255.485C291.79 265.446 290.691 273.869 288.494 280.754C286.297 287.639 283.294 293.205 279.485 297.453C275.677 301.701 271.209 304.777 266.082 306.682C261.004 308.537 255.56 309.465 249.749 309.465C243.938 309.465 238.47 308.513 233.343 306.608C228.265 304.655 223.821 301.555 220.013 297.307C216.253 293.01 213.274 287.443 211.077 280.607C208.88 273.723 207.781 265.349 207.781 255.485C207.781 245.524 208.88 237.126 211.077 230.29C213.274 223.405 216.253 217.839 220.013 213.591C223.821 209.343 228.265 206.267 233.343 204.362C238.47 202.458 243.938 201.506 249.749 201.506C255.56 201.506 261.004 202.482 266.082 204.436C271.209 206.34 275.677 209.44 279.485 213.737C283.294 218.034 286.297 223.601 288.494 230.437C290.691 237.272 291.79 245.622 291.79 255.485ZM386.346 286.979H375.872V308H354.852V286.979H302.337L314.056 202.971H335.076L325.921 266.032H354.852V213.518H375.872V266.032H386.346V286.979Z" fill="white"/>
</svg>
