<svg viewBox="0 0 292 297" fill="none" xmlns="http://www.w3.org/2000/svg">
<path d="M-18.1735 48.4887C-47.4961 56.835 -76.5568 73.7805 -92.0035 98.5665C-107.188 123.352 -109.021 155.979 -115.305 192.399C-121.588 228.566 -132.584 268.527 -112.425 285.473C-92.5272 302.418 -41.4745 296.601 -5.8685 293.313C29.9993 289.772 50.1586 288.761 69.5324 286.99C88.6444 285.22 106.971 282.691 133.676 281.173C160.642 279.403 195.986 279.15 230.283 263.975C264.318 248.8 297.306 218.703 291.284 192.146C285.525 165.59 240.755 142.068 219.287 105.648C197.819 69.228 199.651 19.6561 178.707 6.75727C157.762 -6.14154 114.04 17.3798 77.6485 29.014C40.9953 40.6483 11.1491 40.1424 -18.1735 48.4887Z" fill="#E29587"/>
<path d="M-22.2437 48.2767C-50.4385 56.5841 -78.3816 73.4506 -93.2342 98.121C-107.835 122.791 -109.597 155.266 -115.639 191.516C-121.681 227.515 -132.254 267.29 -112.87 284.156C-93.7377 301.023 -44.6485 295.233 -10.412 291.96C24.0762 288.436 43.4602 287.429 62.0889 285.667C80.4658 283.905 98.0875 281.387 123.765 279.877C149.694 278.115 183.679 277.863 216.657 262.758C249.383 247.654 281.102 217.697 275.312 191.265C269.774 164.832 226.726 141.42 206.084 105.17C185.441 68.9193 187.203 19.5785 167.064 6.73976C146.925 -6.09894 104.884 17.3128 69.8928 28.8928C34.6493 40.4728 5.95105 39.9693 -22.2437 48.2767Z" fill="#D66D75"/>
<path d="M31.0159 254.991C32.1117 256.091 32.1085 257.87 31.0089 258.966C29.9093 260.062 28.1296 260.059 27.0338 258.959C25.9381 257.859 25.9412 256.08 27.0408 254.984C28.1405 253.888 29.9202 253.891 31.0159 254.991Z" fill="#E6E6E6"/>
<path d="M222.043 219.469L222.04 217.492L220.062 217.495L220.06 216.177L222.038 216.173L222.035 214.196L223.352 214.194L223.356 216.171L225.333 216.168L225.335 217.486L223.358 217.489L223.361 219.466L222.043 219.469Z" fill="#E6E6E6"/>
<path d="M157.016 101.991C158.112 103.091 158.109 104.87 157.009 105.966C155.909 107.062 154.13 107.059 153.034 105.959C151.938 104.859 151.941 103.08 153.041 101.984C154.14 100.888 155.92 100.891 157.016 101.991Z" fill="#E6E6E6"/>
<path d="M99.0432 193.94L99.0402 191.962L97.0624 191.966L97.0605 190.648L99.0376 190.644L99.0346 188.667L100.352 188.665L100.356 190.642L102.333 190.639L102.335 191.957L100.358 191.96L100.361 193.937L99.0432 193.94Z" fill="#E6E6E6"/>
<path d="M43.0432 74.9399L43.0402 72.9625L41.0624 72.9658L41.0605 71.6477L43.0376 71.6443L43.0346 69.6668L44.3524 69.6646L44.3561 71.642L46.3332 71.6387L46.3354 72.9572L44.358 72.9602L44.3614 74.9373L43.0432 74.9399Z" fill="#E6E6E6"/>
<g clip-path="url(#clip0)">
<path d="M215.948 74.0525L196.582 78.4841L188.4 63.0521L204.959 56.587L215.948 74.0525Z" fill="#2F2E41"/>
<path d="M169.47 94.4993L166.79 89.2658C166.583 88.8616 166.466 88.4173 166.447 87.9636C166.429 87.5098 166.509 87.0575 166.683 86.6379C166.857 86.2183 167.119 85.8414 167.453 85.5333C167.786 85.2252 168.183 84.9932 168.615 84.8534C169.051 84.7125 169.512 84.6687 169.966 84.725C170.42 84.7813 170.857 84.9365 171.245 85.1795C171.632 85.4225 171.963 85.7475 172.211 86.1316C172.46 86.5158 172.622 86.9498 172.685 87.4032L173.415 92.6308L180.266 103.426V96.9906L187.947 97.821L186.872 109.291C186.818 109.866 186.65 110.424 186.377 110.934C186.103 111.443 185.731 111.892 185.282 112.255C184.793 112.65 184.223 112.934 183.613 113.087C183.003 113.239 182.367 113.257 181.749 113.139C181.131 113.021 180.546 112.77 180.035 112.403C179.525 112.036 179.1 111.562 178.791 111.015L169.47 94.4993Z" fill="#A0616A"/>
<path d="M227.601 198.512L221.58 198.927L217.635 161.765L194.798 139.343L192.515 198.927H185.664C181.485 162.343 171.464 123.405 184.418 114.015L187.947 107.994L209.331 111.938L210.162 120.243L214.001 129.889L228.465 154.189C229.39 155.744 229.832 157.539 229.734 159.346L227.601 198.512Z" fill="#2F2E41"/>
<path d="M189.523 214.913C188.845 214.913 188.173 214.773 187.551 214.501C186.929 214.23 186.37 213.834 185.908 213.336C185.446 212.839 185.092 212.252 184.867 211.611C184.643 210.971 184.553 210.291 184.603 209.614L185.456 198.096C187.984 195.506 190.328 195.845 192.515 198.719L194.379 209.107C194.507 209.818 194.477 210.547 194.292 211.245C194.107 211.942 193.771 212.591 193.307 213.144C192.844 213.698 192.266 214.143 191.612 214.449C190.958 214.754 190.245 214.913 189.523 214.913Z" fill="#6C63FF"/>
<path d="M229.818 217.404C229.371 217.404 228.93 217.31 228.522 217.128C228.115 216.947 227.75 216.681 227.452 216.349L215.996 203.594C215.673 203.233 215.426 202.811 215.271 202.352C215.116 201.893 215.057 201.408 215.096 200.925C215.134 200.443 215.271 199.973 215.498 199.545C215.724 199.117 216.035 198.74 216.412 198.436L220.957 194.775L227.601 197.681L232.831 213.209C232.992 213.687 233.037 214.197 232.962 214.696C232.888 215.195 232.695 215.669 232.4 216.079C232.106 216.489 231.718 216.823 231.269 217.054C230.82 217.284 230.322 217.404 229.818 217.404Z" fill="#6C63FF"/>
<path d="M200.13 73.0402C204.302 73.0402 207.684 69.6585 207.684 65.487C207.684 61.3155 204.302 57.9338 200.13 57.9338C195.959 57.9338 192.577 61.3155 192.577 65.487C192.577 69.6585 195.959 73.0402 200.13 73.0402Z" fill="#A0616A"/>
<path d="M204.452 97.7171H194.902L192.722 78.7209C195.047 75.4445 195.802 72.0217 194.902 68.4442H204.452C202.98 71.6571 203.232 74.8737 207.047 78.098L204.452 97.7171Z" fill="#A0616A"/>
<path d="M208.916 112.354C201.435 115.099 194.421 114.25 187.948 109.24C187.791 103.24 186.326 95.796 184.275 87.706C183.967 86.4931 184.067 85.2125 184.56 84.0623C185.053 82.912 185.911 81.9562 187.001 81.3424L193.138 77.8906L199.989 94.0841L206.217 77.4753L210.359 78.3957C211.336 78.6142 212.219 79.1385 212.878 79.8925C213.538 80.6466 213.94 81.5912 214.026 82.5892C215.111 94.9071 214.787 106.013 208.916 112.354Z" fill="#E6E6E6"/>
<path d="M188.778 101.973C184.445 102.392 181.333 100.603 179.228 96.9906L180.681 90.3361C180.681 88.1713 181.371 86.0628 182.65 84.3167C183.93 82.5706 185.733 81.2777 187.797 80.6258L188.57 80.3818L188.778 101.973Z" fill="#E6E6E6"/>
<path d="M219.919 131.661L220.946 136.281C221.063 136.807 221.05 137.354 220.908 137.874C220.767 138.395 220.5 138.872 220.133 139.267C219.765 139.661 219.307 139.96 218.798 140.137C218.289 140.315 217.744 140.366 217.211 140.286C216.761 140.219 216.329 140.059 215.943 139.818C215.556 139.576 215.224 139.258 214.966 138.882C214.708 138.507 214.53 138.082 214.443 137.635C214.356 137.188 214.362 136.728 214.461 136.283L215.582 131.224L212.238 98.859L218.881 95.9525L219.919 131.661Z" fill="#A0616A"/>
<path d="M211.2 100.312C215.532 100.732 218.644 98.9417 220.75 95.3297L219.296 88.6752C219.296 86.5104 218.607 84.4019 217.327 82.6558C216.047 80.9097 214.244 79.6168 212.18 78.9649L211.407 78.7209L211.2 100.312Z" fill="#E6E6E6"/>
<path d="M204.25 54.2077C204.25 54.2077 208.54 55.0146 209.532 60.365C209.687 61.2673 209.716 62.1868 209.616 63.097C209.517 64.1269 209.661 66.3021 211.897 68.8634C213.356 70.5247 214.716 72.2708 215.969 74.0926L211.486 75.286L209.483 67.8591C208.512 64.2583 207.016 60.8202 205.044 57.6552L205.003 57.5891C205.003 57.5891 203.514 61.5673 199.523 62.1126L200.754 60.4927C200.754 60.4927 196.089 63.1893 193.446 64.0131C193.144 64.1072 192.874 64.2818 192.664 64.5181C192.454 64.7543 192.313 65.0434 192.256 65.354C192.198 65.6647 192.226 65.9851 192.337 66.2809C192.448 66.5768 192.638 66.8367 192.886 67.0327C192.904 67.0474 192.923 67.0622 192.943 67.077C194.887 68.5534 198.852 72.0765 197.286 75.4845C195.719 78.8926 197.546 79.514 197.546 79.514L194.177 78.2322L192.635 77.5719L192.791 78.712L185.263 78.8698C185.263 78.8698 183.229 78.8574 186.842 73.4275C186.842 73.4275 187.714 71.3915 186.998 69.8361C186.424 68.6581 186.138 67.3604 186.164 66.0502C186.391 60.5758 188.697 49.4387 204.25 54.2077Z" fill="#2F2E41"/>
<path d="M175.083 74.0533L174.013 73.6948L183.832 44.3829C184.578 42.155 184.878 39.8019 184.715 37.458C184.552 35.1142 183.929 32.8253 182.881 30.7223C181.834 28.6192 180.382 26.7431 178.61 25.201C176.837 23.6589 174.778 22.4811 172.55 21.7348L110.448 0.931489C105.949 -0.575765 101.035 -0.233912 96.7878 1.88185C92.5405 3.9976 89.3076 7.71395 87.8003 12.2133L33.9315 173.021C32.4242 177.521 32.7661 182.435 34.8819 186.682C36.9976 190.929 40.714 194.162 45.2134 195.669L107.315 216.473C111.814 217.98 116.728 217.638 120.975 215.522C125.223 213.407 128.456 209.69 129.963 205.191L167.023 94.5596L168.093 94.9181L175.083 74.0533Z" fill="black"/>
<path d="M171.756 26.3777L163.649 23.6622C163.716 24.701 163.526 25.7403 163.096 26.6885C162.667 27.6366 162.011 28.4646 161.186 29.0994C160.361 29.7342 159.392 30.1563 158.365 30.3287C157.339 30.5011 156.286 30.4183 155.299 30.0877L119.721 18.1698C118.734 17.8391 117.844 17.2707 117.128 16.5147C116.413 15.7587 115.894 14.8383 115.618 13.8347C115.342 12.831 115.317 11.7748 115.545 10.7592C115.773 9.74352 116.247 8.79958 116.926 8.0105L109.355 5.4742C105.995 4.3486 102.325 4.6039 99.1535 6.18393C95.9817 7.76395 93.5674 10.5393 92.4418 13.8994L38.6519 174.471C37.5263 177.831 37.7816 181.501 39.3617 184.673C40.9417 187.845 43.717 190.259 47.0771 191.385H47.0772L109.478 212.288C111.141 212.845 112.899 213.07 114.649 212.948C116.399 212.826 118.109 212.361 119.679 211.578C121.25 210.796 122.651 209.712 123.802 208.388C124.954 207.064 125.834 205.527 126.391 203.863L180.181 43.291C180.738 41.6273 180.962 39.87 180.841 38.1196C180.719 36.3693 180.253 34.66 179.471 33.0894C178.689 31.5189 177.605 30.1178 176.281 28.9662C174.957 27.8146 173.419 26.935 171.756 26.3777L171.756 26.3777Z" fill="white"/>
<path d="M156.15 80.2479L89.557 57.9398C89.2302 57.8299 88.9603 57.5949 88.8065 57.2862C88.6528 56.9776 88.6277 56.6206 88.7369 56.2935L94.2706 39.7745C94.3805 39.4477 94.6155 39.1778 94.9241 39.0241C95.2328 38.8703 95.5898 38.8453 95.9169 38.9544L162.51 61.2625C162.837 61.3724 163.107 61.6074 163.261 61.9161C163.415 62.2247 163.44 62.5817 163.33 62.9088L157.797 79.4278C157.687 79.7546 157.452 80.0245 157.143 80.1782C156.835 80.332 156.478 80.357 156.15 80.2479ZM95.7516 39.4477C95.5554 39.3822 95.3412 39.3972 95.156 39.4894C94.9708 39.5817 94.8298 39.7436 94.7638 39.9397L89.2302 56.4587C89.1647 56.655 89.1797 56.8692 89.2719 57.0544C89.3642 57.2396 89.5261 57.3806 89.7222 57.4465L156.316 79.7546C156.512 79.8201 156.726 79.8051 156.911 79.7128C157.097 79.6206 157.238 79.4586 157.303 79.2625L162.837 62.7435C162.903 62.5473 162.888 62.3331 162.795 62.1479C162.703 61.9627 162.541 61.8217 162.345 61.7557L95.7516 39.4477Z" fill="#3F3D56"/>
<path d="M134.255 145.608L67.662 123.3C67.3351 123.19 67.0653 122.955 66.9115 122.646C66.7578 122.338 66.7327 121.981 66.8418 121.654L77.085 91.076C77.1949 90.7492 77.43 90.4793 77.7386 90.3256C78.0472 90.1718 78.4042 90.1468 78.7313 90.2559L145.325 112.564C145.652 112.674 145.921 112.909 146.075 113.218C146.229 113.526 146.254 113.883 146.145 114.21L135.902 144.788C135.792 145.115 135.557 145.385 135.248 145.538C134.939 145.692 134.582 145.717 134.255 145.608ZM78.5661 90.7492C78.3698 90.6837 78.1556 90.6987 77.9704 90.791C77.7853 90.8832 77.6442 91.0451 77.5783 91.2413L67.3351 121.819C67.2696 122.015 67.2847 122.229 67.3769 122.414C67.4692 122.6 67.6311 122.741 67.8272 122.807L134.421 145.115C134.617 145.18 134.831 145.165 135.016 145.073C135.201 144.981 135.343 144.819 135.408 144.623L145.652 114.045C145.717 113.849 145.702 113.635 145.61 113.449C145.518 113.264 145.356 113.123 145.16 113.057L78.5661 90.7492Z" fill="#3F3D56"/>
<path d="M147.064 105.733L117.467 95.8187C117.14 95.7088 116.87 95.4738 116.717 95.1651C116.563 94.8565 116.538 94.4995 116.647 94.1724L122.181 77.6534C122.291 77.3266 122.526 77.0567 122.834 76.903C123.143 76.7492 123.5 76.7242 123.827 76.8333L153.424 86.748C153.751 86.8579 154.021 87.093 154.175 87.4016C154.328 87.7102 154.353 88.0673 154.244 88.3943L148.711 104.913C148.601 105.24 148.366 105.51 148.057 105.664C147.748 105.818 147.391 105.843 147.064 105.733ZM123.662 77.3266C123.466 77.2611 123.251 77.2761 123.066 77.3684C122.881 77.4606 122.74 77.6225 122.674 77.8187L117.14 94.3376C117.075 94.5339 117.09 94.7481 117.182 94.9333C117.274 95.1185 117.436 95.2595 117.632 95.3254L147.23 105.24C147.426 105.306 147.64 105.291 147.825 105.198C148.01 105.106 148.151 104.944 148.217 104.748L153.751 88.2291C153.817 88.0329 153.801 87.8186 153.709 87.6335C153.617 87.4483 153.455 87.3072 153.259 87.2413L123.662 77.3266Z" fill="#E6E6E6"/>
<path d="M83.8743 173.171L54.2772 163.256C53.9504 163.146 53.6805 162.911 53.5267 162.602C53.373 162.294 53.3479 161.937 53.4571 161.61L63.7829 130.785C63.8928 130.459 64.1278 130.189 64.4365 130.035C64.7451 129.881 65.1021 129.856 65.4292 129.965L95.0263 139.88C95.3531 139.99 95.623 140.225 95.7768 140.534C95.9305 140.842 95.9556 141.199 95.8464 141.526L85.5207 172.351C85.4107 172.677 85.1757 172.947 84.8671 173.101C84.5584 173.255 84.2014 173.28 83.8743 173.171ZM65.2639 130.459C65.0677 130.393 64.8535 130.408 64.6683 130.5C64.4831 130.593 64.3421 130.755 64.2761 130.951L53.9504 161.775C53.8849 161.971 53.8999 162.185 53.9921 162.371C54.0844 162.556 54.2463 162.697 54.4424 162.763L84.0396 172.677C84.2358 172.743 84.4501 172.728 84.6352 172.636C84.8204 172.543 84.9615 172.381 85.0274 172.185L95.3532 141.361C95.4187 141.165 95.4036 140.951 95.3114 140.765C95.2191 140.58 95.0572 140.439 94.8611 140.373L65.2639 130.459Z" fill="#E6E6E6"/>
<path d="M120.377 185.399L90.7801 175.484C90.4533 175.374 90.1834 175.139 90.0297 174.83C89.8759 174.522 89.8509 174.165 89.96 173.838L100.286 143.014C100.396 142.687 100.631 142.417 100.939 142.263C101.248 142.109 101.605 142.084 101.932 142.193L131.529 152.108C131.856 152.218 132.126 152.453 132.28 152.762C132.433 153.07 132.459 153.427 132.349 153.754L122.024 184.579C121.914 184.905 121.679 185.175 121.37 185.329C121.061 185.483 120.704 185.508 120.377 185.399ZM101.767 142.687C101.571 142.621 101.356 142.636 101.171 142.728C100.986 142.821 100.845 142.983 100.779 143.179L90.4533 174.003C90.3878 174.199 90.4028 174.413 90.4951 174.599C90.5873 174.784 90.7493 174.925 90.9454 174.991L120.543 184.905C120.739 184.971 120.953 184.956 121.138 184.864C121.323 184.771 121.464 184.609 121.53 184.413L131.856 153.589C131.922 153.393 131.907 153.179 131.814 152.994C131.722 152.808 131.56 152.667 131.364 152.601L101.767 142.687Z" fill="#E6E6E6"/>
<path d="M97.6803 104.926C97.5705 104.889 97.4543 104.873 97.3384 104.88C97.2224 104.887 97.1091 104.917 97.0048 104.968C96.9004 105.019 96.8072 105.09 96.7304 105.177C96.6536 105.264 96.5947 105.366 96.5572 105.476C96.5196 105.586 96.5041 105.702 96.5116 105.818C96.519 105.934 96.5492 106.047 96.6005 106.151C96.6518 106.255 96.7231 106.348 96.8104 106.425C96.8977 106.502 96.9993 106.56 97.1093 106.598L97.1193 106.601L136.589 119.823C136.811 119.899 137.054 119.883 137.264 119.78C137.474 119.676 137.634 119.494 137.71 119.272C137.786 119.051 137.77 118.808 137.667 118.598C137.564 118.388 137.381 118.227 137.159 118.151L137.15 118.148L97.6803 104.926Z" fill="#E6E6E6"/>
<path d="M95.998 109.95C95.8882 109.912 95.772 109.896 95.6561 109.904C95.5402 109.911 95.4268 109.941 95.3225 109.992C95.2182 110.043 95.125 110.114 95.0482 110.201C94.9715 110.288 94.9126 110.389 94.8751 110.499C94.8375 110.609 94.822 110.725 94.8294 110.841C94.8369 110.957 94.8671 111.07 94.9184 111.175C94.9696 111.279 95.0409 111.372 95.1282 111.448C95.2155 111.525 95.317 111.584 95.427 111.621L95.437 111.624L112.421 117.314C112.643 117.387 112.884 117.369 113.093 117.264C113.301 117.159 113.46 116.977 113.534 116.755C113.608 116.534 113.591 116.293 113.488 116.084C113.385 115.875 113.203 115.715 112.982 115.639L95.998 109.95Z" fill="#E6E6E6"/>
<path d="M77.8526 112.804C77.2157 112.59 76.5716 112.792 76.417 113.254C76.2624 113.716 76.6548 114.265 77.2917 114.478L131.748 132.72C132.385 132.934 133.029 132.732 133.184 132.27C133.338 131.809 132.946 131.259 132.309 131.046L77.8526 112.804Z" fill="#E6E6E6"/>
<path d="M76.1695 117.827C75.5326 117.614 74.8885 117.816 74.7339 118.277C74.5793 118.739 74.9717 119.288 75.6086 119.502L130.065 137.744C130.702 137.957 131.346 137.755 131.501 137.294C131.655 136.832 131.263 136.283 130.626 136.069L76.1695 117.827Z" fill="#E6E6E6"/>
<path d="M116.02 51.817C115.799 51.7426 115.556 51.7592 115.347 51.8632C115.137 51.9673 114.978 52.1502 114.903 52.3719C114.828 52.5936 114.844 52.8359 114.948 53.0456C115.052 53.2553 115.234 53.4152 115.456 53.4903L115.459 53.4915L154.929 66.7135C155.151 66.7863 155.392 66.7684 155.601 66.6637C155.809 66.5591 155.968 66.3762 156.042 66.155C156.116 65.9338 156.1 65.6923 155.996 65.4832C155.893 65.2741 155.711 65.1144 155.49 65.039L116.02 51.817Z" fill="#E6E6E6"/>
<path d="M114.337 56.8404C114.227 56.8032 114.111 56.788 113.995 56.7956C113.88 56.8033 113.766 56.8338 113.662 56.8852C113.558 56.9367 113.466 57.0081 113.389 57.0955C113.313 57.1829 113.254 57.2845 113.217 57.3945C113.18 57.5045 113.165 57.6207 113.173 57.7365C113.181 57.8523 113.211 57.9654 113.263 58.0693C113.315 58.1733 113.386 58.2661 113.474 58.3423C113.561 58.4186 113.663 58.4768 113.773 58.5138L113.776 58.5149L130.76 64.2044C130.982 64.2772 131.223 64.2593 131.432 64.1547C131.64 64.05 131.799 63.8672 131.873 63.646C131.947 63.4248 131.931 63.1832 131.827 62.9741C131.724 62.765 131.542 62.6053 131.321 62.5299L114.337 56.8404Z" fill="#E6E6E6"/>
<path d="M110.534 93.4995L82.7695 84.1987L93.0947 75.0701C93.2798 74.9065 93.5046 74.7945 93.7467 74.7453C93.9888 74.6961 94.2395 74.7115 94.4737 74.79C94.7079 74.8685 94.9174 75.0072 95.081 75.1923C95.2446 75.3773 95.3566 75.6022 95.4057 75.8443L96.5774 81.6139L104.077 74.9834C104.309 74.7786 104.59 74.6383 104.894 74.5768C105.197 74.5152 105.511 74.5345 105.804 74.6327C106.097 74.731 106.359 74.9047 106.564 75.1364C106.769 75.3681 106.909 75.6496 106.971 75.9527L110.534 93.4995ZM83.7891 83.9916L109.845 92.72L106.461 76.0562C106.417 75.8426 106.319 75.6442 106.174 75.4809C106.03 75.3177 105.845 75.1953 105.639 75.126C105.432 75.0568 105.211 75.0432 104.997 75.0866C104.784 75.13 104.585 75.2288 104.422 75.3732L96.247 82.6005L94.8959 75.9478C94.8649 75.7952 94.7943 75.6535 94.6912 75.5368C94.5881 75.4202 94.4561 75.3327 94.3085 75.2833C94.1609 75.2338 94.0028 75.2241 93.8503 75.2551C93.6977 75.2861 93.556 75.3567 93.4394 75.4599L83.7891 83.9916Z" fill="#E6E6E6"/>
<path d="M146.051 105.397L118.286 96.0964L128.611 86.9678C128.796 86.8042 129.021 86.6922 129.263 86.643C129.505 86.5938 129.756 86.6093 129.99 86.6877C130.225 86.7662 130.434 86.9049 130.598 87.09C130.761 87.275 130.873 87.4999 130.922 87.742L132.094 93.5116L139.594 86.8811C139.826 86.6763 140.107 86.536 140.41 86.4745C140.713 86.4129 141.027 86.4322 141.32 86.5304C141.614 86.6287 141.876 86.8024 142.081 87.0341C142.286 87.2658 142.426 87.5473 142.487 87.8504L146.051 105.397ZM119.306 95.8893L145.362 104.618L141.977 87.9539C141.934 87.7403 141.835 87.5419 141.691 87.3786C141.547 87.2154 141.362 87.093 141.155 87.0237C140.948 86.9545 140.727 86.9409 140.514 86.9843C140.3 87.0277 140.102 87.1265 139.938 87.2709L131.764 94.4982L130.412 87.8455C130.381 87.6929 130.311 87.5512 130.208 87.4345C130.105 87.3179 129.973 87.2304 129.825 87.181C129.677 87.1315 129.519 87.1218 129.367 87.1528C129.214 87.1838 129.073 87.2544 128.956 87.3576L119.306 95.8893Z" fill="#E6E6E6"/>
<path d="M110.561 93.5053L80.9642 83.5906C80.6374 83.4807 80.3675 83.2456 80.2138 82.937C80.06 82.6284 80.035 82.2713 80.1441 81.9443L85.6778 65.4253C85.7877 65.0984 86.0227 64.8286 86.3314 64.6748C86.64 64.5211 86.997 64.496 87.3241 64.6052L116.921 74.5199C117.248 74.6298 117.518 74.8648 117.672 75.1735C117.825 75.4821 117.851 75.8391 117.741 76.1662L112.208 92.6852C112.098 93.012 111.863 93.2819 111.554 93.4357C111.245 93.5894 110.888 93.6144 110.561 93.5053ZM87.1589 65.0984C86.9626 65.0329 86.7484 65.048 86.5632 65.1402C86.378 65.2324 86.237 65.3944 86.1711 65.5905L80.6374 82.1095C80.5719 82.3057 80.5869 82.52 80.6792 82.7051C80.7714 82.8903 80.9334 83.0314 81.1295 83.0973L110.727 93.012C110.923 93.0775 111.137 93.0625 111.322 92.9702C111.507 92.878 111.648 92.716 111.714 92.5199L117.248 76.0009C117.314 75.8047 117.299 75.5905 117.206 75.4053C117.114 75.2201 116.952 75.0791 116.756 75.0132L87.1589 65.0984Z" fill="#E6E6E6"/>
<path d="M69.6067 138.434C69.3851 138.359 69.1429 138.375 68.9331 138.479C68.7233 138.582 68.5631 138.764 68.4876 138.986C68.4122 139.207 68.4277 139.45 68.5307 139.66C68.6337 139.87 68.8158 140.03 69.0371 140.106L69.0458 140.109L86.0298 145.798C86.1399 145.836 86.2564 145.851 86.3724 145.844C86.4885 145.836 86.602 145.805 86.7062 145.754C86.8105 145.702 86.9035 145.631 86.98 145.543C87.0565 145.455 87.1149 145.353 87.1518 145.243C87.1888 145.133 87.2036 145.016 87.1953 144.9C87.1871 144.784 87.156 144.671 87.1039 144.567C87.0517 144.463 86.9796 144.37 86.8915 144.294C86.8034 144.218 86.7012 144.16 86.5907 144.124L69.6067 138.434Z" fill="#E6E6E6"/>
<path d="M67.9541 143.367C67.7324 143.294 67.4907 143.312 67.2819 143.416C67.0732 143.521 66.9143 143.704 66.8402 143.925C66.766 144.147 66.7825 144.388 66.8862 144.598C66.9898 144.807 67.1721 144.967 67.3932 145.042L84.3772 150.731C84.5989 150.804 84.8406 150.787 85.0494 150.682C85.2581 150.578 85.417 150.395 85.4911 150.173C85.5653 149.952 85.5488 149.71 85.4451 149.501C85.3415 149.292 85.1592 149.132 84.9381 149.057L67.9541 143.367Z" fill="#E6E6E6"/>
<path d="M71.2051 161.857C70.1628 161.508 69.2474 160.857 68.5747 159.988C67.9021 159.118 67.5023 158.069 67.426 156.972C67.3497 155.876 67.6003 154.781 68.1461 153.827C68.6919 152.873 69.5084 152.102 70.4923 151.612C71.4763 151.122 72.5834 150.934 73.6738 151.073C74.7642 151.213 75.7889 151.672 76.6183 152.393C77.4476 153.115 78.0444 154.066 78.3332 155.127C78.6219 156.187 78.5897 157.31 78.2405 158.352C77.7709 159.749 76.7664 160.902 75.4475 161.559C74.1285 162.216 72.6028 162.323 71.2051 161.857ZM74.5706 151.81C73.6259 151.493 72.6085 151.464 71.6471 151.726C70.6858 151.988 69.8236 152.529 69.1697 153.28C68.5157 154.032 68.0994 154.961 67.9733 155.949C67.8472 156.938 68.0171 157.941 68.4613 158.833C68.9056 159.725 69.6043 160.465 70.4692 160.959C71.334 161.454 72.3262 161.681 73.3201 161.612C74.3141 161.543 75.2652 161.181 76.0532 160.571C76.8412 159.961 77.4307 159.132 77.7472 158.187C78.17 156.92 78.073 155.537 77.4775 154.342C76.882 153.146 75.8366 152.236 74.5706 151.81H74.5706Z" fill="#E6E6E6"/>
<path d="M116.2 176.93C116.31 176.967 116.426 176.983 116.542 176.976C116.658 176.968 116.771 176.938 116.876 176.887C116.98 176.836 117.073 176.765 117.15 176.678C117.226 176.59 117.285 176.489 117.323 176.379C117.36 176.269 117.375 176.153 117.368 176.037C117.36 175.921 117.33 175.808 117.279 175.704C117.228 175.6 117.156 175.507 117.069 175.43C116.982 175.354 116.88 175.295 116.77 175.258L116.761 175.255L99.7774 169.566C99.5558 169.491 99.3136 169.507 99.1039 169.61C98.8941 169.713 98.7339 169.896 98.6585 170.117C98.5831 170.339 98.5986 170.581 98.7015 170.791C98.8045 171.001 98.9866 171.161 99.2078 171.237L99.2164 171.24L116.2 176.93Z" fill="#E6E6E6"/>
<path d="M117.853 171.997C117.963 172.034 118.079 172.05 118.195 172.042C118.311 172.034 118.425 172.004 118.529 171.952C118.633 171.901 118.726 171.829 118.803 171.741C118.879 171.654 118.938 171.552 118.975 171.441C119.012 171.331 119.026 171.215 119.018 171.099C119.01 170.983 118.979 170.869 118.927 170.765C118.874 170.661 118.802 170.569 118.714 170.493C118.626 170.417 118.524 170.359 118.413 170.322L101.429 164.633C101.208 164.558 100.966 164.574 100.756 164.677C100.546 164.781 100.386 164.963 100.31 165.184C100.235 165.406 100.25 165.648 100.353 165.858C100.456 166.068 100.639 166.229 100.86 166.304L100.869 166.307L117.853 171.997Z" fill="#E6E6E6"/>
<path d="M114.602 153.507C115.644 153.856 116.559 154.507 117.232 155.376C117.905 156.246 118.304 157.295 118.381 158.392C118.457 159.488 118.206 160.583 117.661 161.537C117.115 162.491 116.298 163.262 115.314 163.752C114.33 164.242 113.223 164.43 112.133 164.29C111.042 164.151 110.018 163.692 109.188 162.971C108.359 162.249 107.762 161.298 107.474 160.237C107.185 159.177 107.217 158.054 107.566 157.012C108.036 155.615 109.04 154.462 110.359 153.805C111.678 153.148 113.204 153.041 114.602 153.507ZM111.236 163.554C112.181 163.871 113.198 163.9 114.16 163.638C115.121 163.376 115.983 162.835 116.637 162.084C117.291 161.332 117.707 160.403 117.833 159.415C117.959 158.426 117.79 157.423 117.345 156.531C116.901 155.639 116.202 154.899 115.338 154.404C114.473 153.91 113.481 153.683 112.487 153.752C111.493 153.821 110.541 154.183 109.753 154.793C108.965 155.403 108.376 156.232 108.059 157.177C107.637 158.444 107.734 159.827 108.329 161.022C108.925 162.218 109.97 163.128 111.236 163.554Z" fill="#E6E6E6"/>
<path d="M102.262 46.0676L96.2666 49.3223L99.5963 55.2762L100.949 54.5308L98.4441 49.984L103.028 47.458L102.262 46.0676Z" fill="#D66D75"/>
<path d="M106.082 47.1735L109.411 53.1274L103.416 56.382L102.671 55.0292L107.217 52.5239L104.691 47.9394L106.082 47.1735Z" fill="#D66D75"/>
<path d="M85.0481 99.4021L79.0527 102.657L82.3825 108.611L83.7352 107.865L81.2303 103.319L85.8145 100.792L85.0481 99.4021Z" fill="#D66D75"/>
<path d="M88.8685 100.508L92.1981 106.462L86.2029 109.717L85.4575 108.364L90.0041 105.858L87.4779 101.274L88.8685 100.508Z" fill="#D66D75"/>
</g>
<defs>
<clipPath id="clip0">
<rect width="200" height="217.404" fill="white" transform="translate(33)"/>
</clipPath>
</defs>
</svg>
