<svg viewBox="0 0 415 259" fill="none" xmlns="http://www.w3.org/2000/svg">
<g clip-path="url(#clip0)">
<path d="M292.672 1.55686C367.554 5.19843 434.456 -1.59621 469.236 28.83C504.015 59.2563 506.649 126.347 520.022 203.162C533.66 279.683 558.328 366.192 526.255 398.11C494.182 430.027 405.392 407.909 322.576 407.779C239.76 407.648 162.626 429.241 102.91 402.435C43.1932 375.63 1.15905 300.132 -4.54608 220.1C-9.69491 140.036 20.9531 56.0269 77.9631 20.4888C134.973 -15.0492 217.813 -1.52806 292.672 1.55686Z" fill="#E29587"/>
<path d="M310.652 10.4675C381.873 14.3593 445.444 8.29402 478.689 37.39C511.934 66.4859 514.827 130.214 527.986 203.24C541.397 275.988 565.352 358.285 535.041 388.41C504.731 418.535 420.18 397.017 341.437 396.413C262.694 395.81 189.48 415.869 132.546 390.067C75.6112 364.265 35.2076 292.324 29.3198 216.288C23.9607 140.225 52.6147 60.6224 106.615 27.2034C160.615 -6.21562 239.458 7.10448 310.652 10.4675Z" fill="#D66D75"/>
<path d="M20.1624 198.732C18.7387 199.598 18.5035 201.183 19.6371 202.271C20.7706 203.36 22.8437 203.54 24.2674 202.673C25.6911 201.807 25.9263 200.222 24.7927 199.133C23.6591 198.045 21.586 197.865 20.1624 198.732Z" fill="#E6E6E6"/>
<path d="M164.863 234.782L165.131 233.022L167.434 233.228L167.613 232.054L165.311 231.848L165.58 230.088L164.046 229.951L163.776 231.711L161.474 231.505L161.294 232.679L163.597 232.884L163.328 234.644L164.863 234.782Z" fill="#E6E6E6"/>
<path d="M237.041 153.026C235.618 153.893 235.382 155.477 236.516 156.566C237.65 157.654 239.723 157.834 241.146 156.967C242.57 156.101 242.805 154.516 241.672 153.428C240.538 152.339 238.465 152.159 237.041 153.026Z" fill="#E6E6E6"/>
<path d="M317.931 69.68C316.507 70.5466 316.272 72.1314 317.406 73.2197C318.539 74.3081 320.612 74.4879 322.036 73.6213C323.46 72.7548 323.695 71.17 322.561 70.0816C321.428 68.9932 319.355 68.8134 317.931 69.68Z" fill="#E6E6E6"/>
<path d="M357.122 217.754L357.391 215.994L359.694 216.2L359.873 215.026L357.571 214.821L357.84 213.06L356.306 212.923L356.036 214.683L353.734 214.477L353.554 215.651L355.857 215.857L355.587 217.616L357.122 217.754Z" fill="#E6E6E6"/>
<path d="M123.831 92.287L124.1 90.5268L126.403 90.7327L126.582 89.5593L124.28 89.3535L124.549 87.5933L123.015 87.4561L122.745 89.2162L120.443 89.0104L120.263 90.184L122.566 90.3896L122.296 92.1494L123.831 92.287Z" fill="#E6E6E6"/>
</g>
<defs>
<clipPath id="clip0">
<rect width="415" height="259" fill="white"/>
</clipPath>
</defs>
</svg>
