<svg viewBox="0 0 100 100" fill="none" xmlns="http://www.w3.org/2000/svg">
<g clip-path="url(#clip0)">
<path d="M68.8123 47.8516H77.0154V40.4297H68.8123V47.8516ZM59.0466 47.8516H67.2498V40.4297H59.0466V47.8516ZM49.4763 47.8516H57.6794V40.4297H49.4763V47.8516ZM39.906 47.8516H47.9138V40.4297H39.906V47.8516ZM30.1404 47.8516H38.3435V40.4297H30.1404V47.8516ZM39.906 38.8672H47.9138V31.4453H39.906V38.8672ZM49.4763 38.8672H57.6794V31.4453H49.4763V38.8672ZM59.0466 38.8672H67.2498V31.4453H59.0466V38.8672ZM59.0466 29.8828H67.2498V22.4609H59.0466V29.8828ZM103.187 44.5312C103.187 44.5312 99.6716 41.2109 92.4451 42.3828C91.6638 36.7188 85.6091 33.3984 85.6091 33.3984C85.6091 33.3984 79.9451 40.2344 84.0466 47.8516C82.8748 48.4375 80.9216 49.2188 77.9919 49.2188H24.281C23.3044 52.9297 23.3044 77.5391 50.2576 77.5391C69.5935 77.5391 84.0466 68.5547 90.8826 52.1484C101.039 52.9297 103.187 44.5312 103.187 44.5312Z" fill="black"/>
</g>
<defs>
<clipPath id="clip0">
<rect width="100" height="100" fill="white"/>
</clipPath>
</defs>
</svg>
