<svg viewBox="0 0 75 75" fill="none" xmlns="http://www.w3.org/2000/svg">
<g clip-path="url(#clip0)">
<path d="M73.5833 34.1601L40.8388 1.41558C40.3904 0.966994 39.8581 0.611143 39.2721 0.368358C38.6862 0.125573 38.0582 0.000610352 37.424 0.000610352C36.7897 0.000610352 36.1617 0.125573 35.5758 0.368358C34.9898 0.611143 34.4575 0.966994 34.0091 1.41558L27.2122 8.21245L35.8372 16.8375C37.8435 16.1343 40.1404 16.6148 41.7388 18.2132C42.4997 18.9755 43.0309 19.9364 43.2717 20.9862C43.5125 22.0359 43.4531 23.1323 43.1005 24.15L51.4138 32.4632C53.4247 31.7695 55.745 32.2171 57.3505 33.8273C57.8842 34.3612 58.3075 34.9949 58.5963 35.6924C58.8851 36.3898 59.0337 37.1373 59.0336 37.8922C59.0335 38.6471 58.8847 39.3945 58.5957 40.0919C58.3067 40.7893 57.8832 41.4229 57.3493 41.9566C56.8155 42.4903 56.1817 42.9136 55.4843 43.2024C54.7868 43.4912 54.0393 43.6398 53.2845 43.6396C52.5296 43.6395 51.7821 43.4907 51.0847 43.2018C50.3874 42.9128 49.7537 42.4893 49.22 41.9554C47.5325 40.2679 47.1154 37.7836 47.9685 35.7046L40.2154 27.9515V48.3539C40.7782 48.6324 41.2925 48.9996 41.7388 49.4414C42.2725 49.9751 42.6959 50.6087 42.9847 51.306C43.2735 52.0033 43.4222 52.7507 43.4222 53.5054C43.4222 54.2602 43.2735 55.0076 42.9847 55.7049C42.6959 56.4022 42.2725 57.0358 41.7388 57.5695C41.2051 58.1032 40.5715 58.5265 39.8742 58.8154C39.1769 59.1042 38.4295 59.2529 37.6747 59.2529C36.92 59.2529 36.1726 59.1042 35.4753 58.8154C34.778 58.5265 34.1444 58.1032 33.6107 57.5695C33.0763 57.0361 32.6524 56.4027 32.3632 55.7053C32.074 55.0079 31.9251 54.2604 31.9251 53.5054C31.9251 52.7505 32.074 52.0029 32.3632 51.3055C32.6524 50.6082 33.0763 49.9747 33.6107 49.4414C34.1661 48.8882 34.7825 48.4687 35.4927 48.1875V27.5953C34.8083 27.314 34.1661 26.8992 33.6107 26.3414C32.8037 25.5353 32.255 24.5072 32.0346 23.3881C31.8142 22.269 31.932 21.1096 32.3732 20.0578L23.8654 11.5546L1.41224 33.9843C0.963299 34.4327 0.607151 34.9652 0.364159 35.5514C0.121166 36.1375 -0.00390625 36.7658 -0.00390625 37.4003C-0.00390625 38.0349 0.121166 38.6632 0.364159 39.2493C0.607151 39.8354 0.963299 40.368 1.41224 40.8164L34.1591 73.5585C34.6075 74.0071 35.1398 74.363 35.7258 74.6058C36.3117 74.8485 36.9397 74.9735 37.574 74.9735C38.2082 74.9735 38.8362 74.8485 39.4221 74.6058C40.0081 74.363 40.5404 74.0071 40.9888 73.5585L73.5833 41.0156C74.0323 40.5672 74.3884 40.0347 74.6314 39.4485C74.8744 38.8624 74.9995 38.2341 74.9995 37.5996C74.9995 36.965 74.8744 36.3368 74.6314 35.7506C74.3884 35.1645 74.0323 34.632 73.5833 34.1835" fill="black"/>
</g>
<defs>
<clipPath id="clip0">
<rect width="75" height="75" fill="white"/>
</clipPath>
</defs>
</svg>
