<svg viewBox="0 0 75 75" fill="none" xmlns="http://www.w3.org/2000/svg">
<path fill-rule="evenodd" clip-rule="evenodd" d="M37.5003 72.0434L51.3097 29.5312H23.6909L37.5003 72.0434Z" fill="black"/>
<path fill-rule="evenodd" clip-rule="evenodd" d="M37.5 72.0434L23.6906 29.5312H4.33594L37.5 72.0434Z" fill="black"/>
<path fill-rule="evenodd" clip-rule="evenodd" d="M4.33583 29.5312L0.140521 42.457C-0.0461221 43.0313 -0.0461908 43.6499 0.140324 44.2241C0.32684 44.7984 0.690364 45.2989 1.1788 45.6539L37.4999 72.0434L4.33583 29.5312Z" fill="black"/>
<path fill-rule="evenodd" clip-rule="evenodd" d="M4.33594 29.5313H23.6895L15.3727 3.94456C14.9449 2.62737 13.0816 2.62737 12.6539 3.94456L4.33594 29.5313Z" fill="black"/>
<path fill-rule="evenodd" clip-rule="evenodd" d="M37.5 72.0434L51.3094 29.5312H70.6641L37.5 72.0434Z" fill="black"/>
<path fill-rule="evenodd" clip-rule="evenodd" d="M70.6641 29.5312L74.8594 42.4453C75.046 43.0196 75.0461 43.6381 74.8596 44.2124C74.6731 44.7867 74.3095 45.2872 73.8211 45.6422L37.5 72.0434L70.6641 29.5312Z" fill="black"/>
<path fill-rule="evenodd" clip-rule="evenodd" d="M70.6638 29.5313H51.3091L59.6271 3.93284C60.0548 2.61565 61.9181 2.61565 62.3458 3.93284L70.6638 29.5313Z" fill="black"/>
</svg>
