<svg viewBox="0 0 75 75" fill="none" xmlns="http://www.w3.org/2000/svg">
<g clip-path="url(#clip0)">
<path d="M47.7281 24.0094L50.1305 24.0504L56.6578 17.523L56.9742 14.7574C51.7969 10.1449 44.9613 7.33594 37.4918 7.33594C23.9684 7.33594 12.5543 16.5375 9.17578 29.0016C9.88828 28.5047 11.4117 28.8773 11.4117 28.8773L24.4547 26.7328C24.4547 26.7328 25.125 25.6231 25.4648 25.6781C26.99 24.0026 28.8483 22.6641 30.9208 21.7485C32.9933 20.8329 35.2343 20.3605 37.5 20.3613C41.3672 20.3695 44.9297 21.7359 47.7281 23.9965V24.0094Z" fill="black"/>
<path d="M65.8242 29.0272C64.309 23.4374 61.1859 18.5015 56.9707 14.7573L47.7281 23.9999C51.4312 26.9882 53.8066 31.5608 53.8066 36.6796V38.3108C58.3031 38.3108 61.9559 41.9718 61.9559 46.4601C61.9559 50.9565 58.2949 54.6093 53.8066 54.6093H37.5082L35.877 56.2499V66.0304L37.5082 67.6534H53.8066C59.4249 67.6457 64.8108 65.4105 68.7836 61.4379C72.7564 57.4653 74.9919 52.0795 75 46.4612C74.9918 39.2483 71.3672 32.8675 65.8242 29.0284V29.0272Z" fill="black"/>
<path d="M21.1933 67.664H37.4823V54.6093H21.1933C20.036 54.6095 18.8922 54.3609 17.8394 53.8804L15.4874 54.6011L8.96006 61.1284L8.38818 63.3315C12.0666 66.1377 16.5655 67.6567 21.1921 67.6546L21.1933 67.664Z" fill="black"/>
<path d="M21.1934 25.2773C15.5751 25.2851 10.1892 27.5203 6.21637 31.4929C2.24355 35.4655 0.00806061 40.8513 0 46.4695C0 53.3519 3.29648 59.4715 8.39766 63.348L17.8477 53.898C16.4173 53.2531 15.2033 52.2092 14.3513 50.8916C13.4993 49.574 13.0454 48.0386 13.0441 46.4695C13.0441 41.973 16.7051 38.3203 21.1934 38.3203C24.498 38.3203 27.3387 40.3125 28.623 43.125L38.073 33.675C34.1977 28.5738 28.077 25.2773 21.1945 25.2773H21.1934Z" fill="black"/>
</g>
<defs>
<clipPath id="clip0">
<rect width="75" height="75" fill="white"/>
</clipPath>
</defs>
</svg>
