<svg viewBox="0 0 75 75" fill="none" xmlns="http://www.w3.org/2000/svg">
<path d="M10.2012 57.16L7.45117 55.57L38.1212 2.44995L40.8712 4.03995L10.2012 57.16Z" fill="black"/>
<path d="M6.81885 51.325H68.1638V54.505H6.81885V51.325Z" fill="black"/>
<path d="M38.7162 70.83L8.03369 53.115L9.62369 50.365L40.3062 68.08L38.7162 70.83ZM65.3712 24.655L34.6862 6.94251L36.2762 4.1925L66.9587 21.9075L65.3712 24.655Z" fill="black"/>
<path d="M9.63102 24.6451L8.04102 21.8951L38.751 4.17505L40.341 6.92505L9.63102 24.6451Z" fill="black"/>
<path d="M64.8065 57.1601L34.1315 4.03507L36.8815 2.44507L67.5565 55.5701L64.8065 57.1601ZM9.25146 19.7851H12.4315V55.2151H9.25146V19.7851ZM62.5715 19.7851H65.7515V55.2151H62.5715V19.7851Z" fill="black"/>
<path d="M38.1761 69.4825L36.7886 67.0775L63.4761 51.67L64.8636 54.075L38.1761 69.4825Z" fill="black"/>
<path d="M69.9636 56.2495C69.0753 57.7837 67.615 58.9033 65.9028 59.3629C64.1906 59.8226 62.366 59.585 60.8286 58.702C59.2944 57.8136 58.1749 56.3534 57.7152 54.6412C57.2555 52.9289 57.4932 51.1043 58.3761 49.567C59.2645 48.0328 60.7248 46.9132 62.437 46.4535C64.1492 45.9939 65.9738 46.2315 67.5111 47.1145C70.7286 48.972 71.8211 53.052 69.9611 56.2495H69.9636ZM16.6061 25.4345C15.7177 26.9687 14.2575 28.0883 12.5453 28.5479C10.8331 29.0076 9.00846 28.77 7.47113 27.887C5.93625 26.9986 4.8162 25.5379 4.35648 23.8251C3.89676 22.1123 4.13488 20.287 5.01863 18.7495C5.90702 17.2153 7.36725 16.0957 9.07947 15.636C10.7917 15.1764 12.6163 15.414 14.1536 16.297C15.6878 17.1854 16.8074 18.6456 17.2671 20.3578C17.7268 22.07 17.4891 23.8947 16.6061 25.432V25.4345ZM5.03863 56.2495C4.15567 54.7122 3.918 52.8876 4.37768 51.1753C4.83737 49.4631 5.95693 48.0029 7.49113 47.1145C9.02846 46.2315 10.8531 45.9939 12.5653 46.4535C14.2775 46.9132 15.7377 48.0328 16.6261 49.567C17.5091 51.1043 17.7468 52.9289 17.2871 54.6412C16.8274 56.3534 15.7078 57.8136 14.1736 58.702C10.9561 60.5395 6.87363 59.452 5.03863 56.252V56.2495ZM58.3961 25.437C57.5132 23.8997 57.2755 22.075 57.7352 20.3628C58.1949 18.6506 59.3144 17.1904 60.8486 16.302C62.386 15.419 64.2106 15.1814 65.9228 15.641C67.635 16.1007 69.0953 17.2203 69.9836 18.7545C70.8666 20.2918 71.1043 22.1164 70.6446 23.8286C70.1849 25.5409 69.0653 27.0011 67.5311 27.8895C65.9938 28.7725 64.1692 29.0101 62.457 28.5504C60.7448 28.0908 59.2845 26.9712 58.3961 25.437ZM37.5011 74.9995C36.1789 74.9995 34.8863 74.6074 33.7869 73.8727C32.6875 73.138 31.8307 72.0938 31.3248 70.8722C30.8189 69.6505 30.6866 68.3062 30.9448 67.0094C31.2029 65.7126 31.8398 64.5214 32.775 63.5866C33.7102 62.6518 34.9016 62.0153 36.1985 61.7576C37.4954 61.5 38.8396 61.6327 40.0611 62.1391C41.2826 62.6454 42.3265 63.5027 43.0607 64.6023C43.795 65.702 44.1866 66.9947 44.1861 68.317C44.1815 70.0883 43.4756 71.7857 42.2229 73.038C40.9701 74.2903 39.2725 74.9955 37.5011 74.9995ZM37.5011 13.3695C36.6229 13.3708 35.753 13.1988 34.9413 12.8633C34.1297 12.5278 33.3922 12.0355 32.7712 11.4144C32.1502 10.7934 31.6578 10.0559 31.3223 9.24428C30.9868 8.43262 30.8148 7.56274 30.8161 6.68448C30.8161 4.91184 31.5203 3.2118 32.7738 1.95836C34.0272 0.704911 35.7272 0.000732422 37.4999 0.000732422C39.2725 0.000732422 40.9726 0.704911 42.226 1.95836C43.4795 3.2118 44.1836 4.91184 44.1836 6.68448C44.1846 7.56232 44.0124 8.43173 43.677 9.24293C43.3415 10.0541 42.8493 10.7912 42.2286 11.4119C41.6079 12.0326 40.8708 12.5248 40.0596 12.8603C39.2484 13.1958 38.379 13.368 37.5011 13.367" fill="black"/>
</svg>
