<svg viewBox="0 0 75 75" fill="none" xmlns="http://www.w3.org/2000/svg">
<g clip-path="url(#clip0)">
<path d="M60.3516 75H14.1797C12.2862 74.9923 10.4724 74.2367 9.1335 72.8978C7.79458 71.5588 7.03896 69.7451 7.03125 67.8516V7.14844C7.03896 5.25493 7.79458 3.44117 9.1335 2.10225C10.4724 0.763326 12.2862 0.00771296 14.1797 0L60.3516 0C62.2451 0.00771296 64.0588 0.763326 65.3978 2.10225C66.7367 3.44117 67.4923 5.25493 67.5 7.14844V67.8516C67.4923 69.7451 66.7367 71.5588 65.3978 72.8978C64.0588 74.2367 62.2451 74.9923 60.3516 75Z" fill="black"/>
<path d="M44.9414 64.6729V34.8926C44.9414 34.8926 46.875 27.7588 21.0645 37.8223C21.0352 38.0859 21.0352 10.2539 21.0352 10.2539L29.4434 10.21V27.7881C29.4434 27.7881 53.0273 18.4863 53.0273 34.8193V64.4971H44.8975L44.9414 64.6729ZM49.7461 20.9326H40.957C44.1797 16.9775 47.1094 10.2393 47.1094 10.2393H56.3379C56.3379 10.2393 54.7559 14.6338 49.8926 20.9326H49.7461ZM21.1816 64.6143V47.666L29.6777 56.1621L21.1816 64.6582V64.6143Z" fill="white"/>
</g>
<defs>
<clipPath id="clip0">
<rect width="75" height="75" fill="white"/>
</clipPath>
</defs>
</svg>
