<svg viewBox="0 0 330 241" fill="none" xmlns="http://www.w3.org/2000/svg">
<path d="M157.73 80.7455C196.626 103.808 249.772 102.217 276.729 124.484C304.072 147.148 304.843 193.67 313.7 245.361C322.943 297.449 339.503 354.707 322.943 395.662C306.383 437.014 256.319 462.065 208.565 491.489C160.426 520.913 114.597 554.71 65.3032 560.277C16.394 565.446 -35.5961 542.384 -74.4923 507.393C-113.389 472.403 -139.191 425.881 -153.44 379.359C-167.689 332.838 -170 286.713 -170 240.192C-170 194.068 -167.304 147.546 -144.198 117.327C-120.706 87.1074 -77.1881 72.793 -38.2918 49.3333C0.604431 25.8737 34.4943 -6.73131 64.1478 1.22112C93.4163 9.17356 118.449 57.2858 157.73 80.7455Z" fill="#E29587"/>
<path d="M157.73 96.205C196.626 118.541 249.772 117.001 276.729 138.567C304.072 160.519 304.843 205.577 313.7 255.641C322.943 306.091 339.503 361.547 322.943 401.213C306.383 441.265 256.319 465.527 208.565 494.025C160.426 522.524 114.597 555.258 65.3032 560.65C16.394 565.656 -35.5961 543.32 -74.4923 509.43C-113.389 475.54 -139.191 430.482 -153.44 385.424C-167.689 340.366 -170 295.693 -170 250.635C-170 205.962 -167.304 160.904 -144.198 131.635C-120.706 102.367 -77.1881 88.5028 -38.2918 65.7812C0.604431 43.0596 34.4943 11.4805 64.1478 19.1827C93.4163 26.8849 118.449 73.4834 157.73 96.205Z" fill="#D66D75"/>
<path d="M78.7413 96.0097L77.3384 97.4034L75.9447 96L75.0097 96.9291L76.4028 98.332L75 99.7257L75.9286 100.661L77.332 99.2676L78.7251 100.67L79.6607 99.7413L78.267 98.3384L79.6699 96.9453L78.7413 96.0097Z" fill="#E6E6E6"/>
<path d="M24.8108 170.622C26.3632 170.622 27.6216 169.363 27.6216 167.811C27.6216 166.258 26.3632 165 24.8108 165C23.2584 165 22 166.258 22 167.811C22 169.363 23.2584 170.622 24.8108 170.622Z" fill="#E6E6E6"/>
<path d="M123.741 207.01L122.338 208.403L120.945 207L120.01 207.929L121.403 209.332L120 210.726L120.929 211.661L122.332 210.268L123.725 211.67L124.661 210.741L123.267 209.338L124.67 207.945L123.741 207.01Z" fill="#E6E6E6"/>
<path d="M140.811 158.622C142.363 158.622 143.622 157.363 143.622 155.811C143.622 154.258 142.363 153 140.811 153C139.258 153 138 154.258 138 155.811C138 157.363 139.258 158.622 140.811 158.622Z" fill="#E6E6E6"/>
<path d="M253.741 190.01L252.338 191.403L250.945 190L250.01 190.929L251.403 192.332L250 193.726L250.929 194.661L252.332 193.268L253.725 194.67L254.661 193.741L253.267 192.338L254.67 190.945L253.741 190.01Z" fill="#E6E6E6"/>
<path d="M18.8108 67.6216C20.3632 67.6216 21.6216 66.3632 21.6216 64.8108C21.6216 63.2584 20.3632 62 18.8108 62C17.2584 62 16 63.2584 16 64.8108C16 66.3632 17.2584 67.6216 18.8108 67.6216Z" fill="#E6E6E6"/>
</svg>
