<svg viewBox="0 0 75 75" fill="none" xmlns="http://www.w3.org/2000/svg">
<g clip-path="url(#clip0)">
<path d="M27.2389 57.9844C27.2389 57.9844 24.3561 59.7375 29.2428 60.2391C35.1257 60.9891 38.2592 60.8648 44.7702 59.6133C46.0787 60.4146 47.4627 61.0858 48.9022 61.6172C34.2538 67.8797 15.7147 61.2422 27.2366 57.9844H27.2389ZM25.3639 49.8445C25.3639 49.8445 22.2327 52.2234 27.1171 52.7273C33.5038 53.3531 38.5124 53.4773 47.1561 51.7266C47.9968 52.5791 49.026 53.2222 50.1608 53.6039C32.503 58.8633 12.7171 54.1055 25.3639 49.8469V49.8445ZM59.9272 64.118C59.9272 64.118 62.0553 65.8711 57.5483 67.2492C49.1577 69.757 22.3592 70.507 14.8452 67.2492C12.2155 66.1242 17.2241 64.4953 18.8296 64.2445C20.4585 63.8695 21.3374 63.8695 21.3374 63.8695C18.4546 61.8656 2.17722 68.0016 13.0733 69.7523C43.003 74.6367 67.6733 67.6242 59.9085 64.118H59.9272ZM28.5936 41.3273C28.5936 41.3273 14.9436 44.5851 23.7092 45.7101C27.4663 46.2117 34.8538 46.0851 41.7421 45.5859C47.3764 45.0844 53.0155 44.0859 53.0155 44.0859C53.0155 44.0859 51.0116 44.9625 49.6335 45.8391C35.735 49.4719 9.05847 47.843 16.6991 44.0859C23.21 40.9547 28.596 41.332 28.596 41.332L28.5936 41.3273ZM53.0155 54.9773C67.0405 47.7117 60.5296 40.7039 56.0202 41.5781C54.8952 41.8289 54.3913 42.0797 54.3913 42.0797C54.3913 42.0797 54.7663 41.3297 55.6428 41.0789C64.535 37.9476 71.5475 50.4703 52.76 55.3523C52.76 55.3523 52.8842 55.2281 53.0108 54.9773H53.0155ZM29.9764 74.7633C43.4999 75.6398 64.1647 74.2617 64.6639 67.8727C64.6639 67.8727 63.6631 70.3805 53.5194 72.2555C41.9975 74.3836 27.7217 74.1305 19.3311 72.757C19.3311 72.757 21.0842 74.257 29.9764 74.7609V74.7633Z" fill="black"/>
<path d="M44.5218 0.00231934C44.5218 0.00231934 52.2867 7.89138 37.1343 19.7883C24.9867 29.4304 34.3804 34.9406 37.1343 41.2031C29.9953 34.8164 24.8625 29.1797 28.3687 23.9226C33.5015 16.1554 47.6531 12.4219 44.5218 0.00231934ZM40.5375 35.9437C44.1703 40.0758 39.5367 43.8328 39.5367 43.8328C39.5367 43.8328 48.8039 39.075 44.5453 33.1875C40.664 27.5531 37.6546 24.7969 53.9367 15.4054C53.9367 15.4054 28.2656 21.7922 40.5375 35.9437Z" fill="black"/>
</g>
<defs>
<clipPath id="clip0">
<rect width="75" height="75" fill="white"/>
</clipPath>
</defs>
</svg>
