<svg viewBox="0 0 500 401" fill="none" xmlns="http://www.w3.org/2000/svg">
<g clip-path="url(#clip0)">
<path d="M500 135.376V239.487H229.251V135.376C229.202 106.077 238.706 77.5605 256.322 54.1483C268.139 38.3893 283.253 25.3995 300.61 16.0855C317.966 6.77155 337.146 1.35797 356.811 0.222673C359.393 0.0717714 361.997 -0.00188063 364.626 0.00171225C366.119 0.00171225 367.611 0.0232692 369.088 0.0771625C403.437 1.16508 436.076 15.3191 460.346 39.651C461.078 40.3839 461.795 41.1223 462.517 41.866C466.227 45.7514 469.704 49.8527 472.93 54.1483C490.543 77.5617 500.046 106.077 500 135.376Z" fill="#D66D75"/>
<path d="M432.572 131.222C452.274 131.222 468.245 115.25 468.245 95.5482C468.245 75.8463 452.274 59.8748 432.572 59.8748C412.87 59.8748 396.898 75.8463 396.898 95.5482C396.898 115.25 412.87 131.222 432.572 131.222Z" fill="#E29587"/>
<path opacity="0.2" d="M429.063 75.0798C431.324 75.0798 433.157 73.247 433.157 70.9862C433.157 68.7253 431.324 66.8925 429.063 66.8925C426.802 66.8925 424.969 68.7253 424.969 70.9862C424.969 73.247 426.802 75.0798 429.063 75.0798Z" fill="black"/>
<path opacity="0.2" d="M436.08 116.016C438.341 116.016 440.174 114.184 440.174 111.923C440.174 109.662 438.341 107.829 436.08 107.829C433.82 107.829 431.987 109.662 431.987 111.923C431.987 114.184 433.82 116.016 436.08 116.016Z" fill="black"/>
<path opacity="0.2" d="M451.87 92.0393C453.485 92.0393 454.794 90.7302 454.794 89.1153C454.794 87.5004 453.485 86.1912 451.87 86.1912C450.255 86.1912 448.946 87.5004 448.946 89.1153C448.946 90.7302 450.255 92.0393 451.87 92.0393Z" fill="black"/>
<path opacity="0.2" d="M418.536 107.829C423.704 107.829 427.893 103.64 427.893 98.4722C427.893 93.3045 423.704 89.1153 418.536 89.1153C413.368 89.1153 409.179 93.3045 409.179 98.4722C409.179 103.64 413.368 107.829 418.536 107.829Z" fill="black"/>
<path opacity="0.8" d="M320.431 193.51L338.2 172.708L355.969 151.906L365.999 140.163C366.554 139.513 365.698 138.499 365.143 139.149L347.374 159.951L329.605 180.753L319.574 192.496C319.019 193.146 319.876 194.159 320.431 193.51V193.51Z" fill="url(#paint0_linear)"/>
<path opacity="0.8" d="M318.814 101.891L336.583 81.0891L354.352 60.2871L364.383 48.544C364.938 47.8943 364.081 46.8807 363.526 47.5304L345.757 68.3324L327.988 89.1344L317.958 100.877C317.403 101.527 318.259 102.541 318.814 101.891V101.891Z" fill="url(#paint1_linear)"/>
<path d="M369.09 0.0781366V239.486H356.809V0.223248C359.393 0.0725478 361.998 -0.00187771 364.624 -2.73704e-05C366.12 -2.73704e-05 367.611 0.0222924 369.09 0.0781366Z" fill="white"/>
<path d="M472.929 54.1495H256.319C259.544 49.8534 263.02 45.7524 266.731 41.8682H462.517C466.228 45.7524 469.704 49.8534 472.929 54.1495Z" fill="white"/>
<path d="M469.744 160.403C471.296 160.403 472.555 159.145 472.555 157.592C472.555 156.04 471.296 154.781 469.744 154.781C468.192 154.781 466.933 156.04 466.933 157.592C466.933 159.145 468.192 160.403 469.744 160.403Z" fill="#E6E6E6"/>
<path d="M288.124 137.229C289.676 137.229 290.935 135.97 290.935 134.418C290.935 132.866 289.676 131.607 288.124 131.607C286.571 131.607 285.313 132.866 285.313 134.418C285.313 135.97 286.571 137.229 288.124 137.229Z" fill="#E6E6E6"/>
<path d="M416.396 146.991L414.993 148.385L413.6 146.981L412.664 147.911L414.058 149.313L412.655 150.707L413.583 151.642L414.987 150.249L416.38 151.652L417.315 150.723L415.922 149.32L417.325 147.927L416.396 146.991Z" fill="#E6E6E6"/>
<path d="M261.184 175.016L259.781 176.409L258.387 175.006L257.452 175.935L258.845 177.338L257.442 178.732L258.371 179.667L259.774 178.274L261.167 179.676L262.103 178.747L260.709 177.344L262.112 175.951L261.184 175.016Z" fill="#E6E6E6"/>
<path d="M400.767 191.184L399.364 192.577L397.971 191.174L397.036 192.103L398.429 193.506L397.026 194.9L397.954 195.835L399.358 194.442L400.751 195.844L401.687 194.915L400.293 193.512L401.696 192.119L400.767 191.184Z" fill="#E6E6E6"/>
<path d="M305.915 67.2292L304.512 68.6229L303.119 67.2195L302.183 68.1486L303.577 69.5514L302.174 70.9451L303.102 71.8802L304.506 70.487L305.899 71.8899L306.835 70.9608L305.441 69.5579L306.844 68.1648L305.915 67.2292Z" fill="#E6E6E6"/>
<path d="M326.645 380.38H0V381.458H326.645V380.38Z" fill="#E6E6E6"/>
<path d="M51.966 293.483C44.8252 303.578 42.9389 361.028 42.5186 379.443C42.5078 379.858 42.497 380.252 42.4916 380.623H24.4158C24.1948 380.23 23.99 379.842 23.796 379.443C13.082 358.295 19.0265 332.939 19.3391 331.656C18.5253 335.687 22.2062 347.371 26.3667 358.689C28.9051 323.89 50.6079 295.24 51.966 293.483Z" fill="#E29587"/>
<path d="M163.429 241.759L161.383 250.625C161.383 250.625 162.065 271.083 156.609 269.037C151.154 266.991 152.518 249.261 152.518 249.261L157.291 240.396L163.429 241.759Z" fill="#FFB8B8"/>
<path d="M133.082 144.582C140.615 144.582 146.721 138.476 146.721 130.944C146.721 123.411 140.615 117.305 133.082 117.305C125.55 117.305 119.443 123.411 119.443 130.944C119.443 138.476 125.55 144.582 133.082 144.582Z" fill="#FFB8B8"/>
<path d="M122.512 134.694L121.148 154.471L138.197 156.517C138.197 156.517 138.197 140.15 139.561 138.104C140.925 136.058 122.512 134.694 122.512 134.694Z" fill="#FFB8B8"/>
<path d="M160.32 160.449L138.229 151.116C138.229 151.116 127.673 142.986 121.49 149.009L118.715 152.984C118.715 152.984 94.1736 162.552 94.1802 170.054L103.76 207.552C103.76 207.552 98.3231 228.697 106.508 230.054L150.838 234.107C150.838 234.107 156.969 226.6 151.505 217.058L153.531 194.552L160.32 160.449Z" fill="#D66D75"/>
<path d="M145.318 161.144L160.321 160.449C160.321 160.449 165.095 161.808 168.516 174.762C171.937 187.716 172.638 208.856 172.638 208.856L164.488 247.052L154.258 245.697L158.317 208.868L151.476 184.324L145.318 161.144Z" fill="#D66D75"/>
<path d="M102.36 165.273L94.9648 167.583C94.9648 167.583 88.7308 176.878 88.7349 181.652C88.7391 186.425 86.043 222.571 86.043 222.571L103.799 251.879L109.242 237.553L98.315 219.15L107.161 196.638L102.36 165.273Z" fill="#D66D75"/>
<path d="M152.858 232.553L103.829 228.239C103.829 228.239 98.9849 259.149 99.6669 271.424C100.349 283.699 101.031 302.793 101.031 302.793L95.5752 385.991L116.715 383.263L119.443 314.386L128.309 276.88L138.538 324.616L145.357 385.991L163.77 383.945L157.632 309.613C157.632 309.613 163.088 242.782 152.858 232.553Z" fill="#2F2E41"/>
<path d="M159.678 380.535L165.815 382.581C165.815 382.581 178.772 379.171 175.363 388.036C171.953 396.902 162.406 395.538 162.406 395.538C162.406 395.538 150.813 404.403 146.039 397.584L148.767 383.263L159.678 380.535Z" fill="#2F2E41"/>
<path d="M109.896 380.535L116.034 382.581C116.034 382.581 128.991 379.171 125.581 388.036C122.171 396.902 112.624 395.538 112.624 395.538C112.624 395.538 101.031 404.403 96.2573 397.584L98.9851 383.263L109.896 380.535Z" fill="#2F2E41"/>
<path d="M122.512 142.878C122.512 142.878 108.191 132.649 115.693 120.374C120.897 111.858 131.68 112.532 137.797 113.743C139.445 114.048 140.995 114.748 142.312 115.784C143.629 116.82 144.674 118.161 145.357 119.692C146.38 122.078 146.38 124.465 142.289 124.465C134.105 124.465 138.197 130.603 138.197 130.603C138.197 130.603 132.741 131.967 134.105 136.74C135.469 141.514 122.512 142.878 122.512 142.878Z" fill="#2F2E41"/>
<path d="M434.19 171.359L432.759 174.003L431.213 173.165L435.276 165.664L438.202 167.249C438.766 167.554 439.205 167.925 439.519 168.361C439.837 168.8 440.007 169.272 440.031 169.778C440.056 170.281 439.938 170.774 439.676 171.258C439.278 171.993 438.711 172.437 437.975 172.59C437.245 172.741 436.435 172.575 435.545 172.093L434.19 171.359ZM434.868 170.107L436.249 170.855C436.658 171.077 437.021 171.149 437.338 171.072C437.659 170.997 437.916 170.78 438.109 170.423C438.308 170.056 438.361 169.7 438.267 169.356C438.174 169.012 437.938 168.734 437.56 168.52L436.144 167.753L434.868 170.107ZM444.13 180.161L442.584 179.324L444.325 176.109L441.311 174.476L439.57 177.691L438.024 176.854L442.087 169.353L443.633 170.19L441.987 173.23L445.001 174.862L446.647 171.822L448.193 172.659L444.13 180.161ZM448.462 179.089L447.031 181.732L445.485 180.895L449.548 173.393L452.474 174.978C453.038 175.283 453.476 175.654 453.791 176.091C454.108 176.529 454.279 177.002 454.303 177.507C454.328 178.01 454.21 178.503 453.948 178.988C453.55 179.723 452.983 180.166 452.247 180.319C451.517 180.47 450.707 180.304 449.817 179.823L448.462 179.089ZM449.14 177.837L450.521 178.585C450.93 178.806 451.293 178.878 451.61 178.801C451.93 178.726 452.187 178.51 452.381 178.152C452.58 177.785 452.633 177.429 452.539 177.085C452.445 176.741 452.21 176.463 451.832 176.249L450.415 175.482L449.14 177.837Z" fill="white" fill-opacity="0.2"/>
<path d="M311.227 212.98L308.614 213.009L308.694 220.116L306.936 220.136L306.856 213.029L304.278 213.058L304.262 211.634L311.211 211.556L311.227 212.98ZM316.619 217.789C316.615 217.457 316.495 217.204 316.259 217.031C316.023 216.854 315.599 216.671 314.987 216.483C314.376 216.291 313.891 216.101 313.533 215.913C312.559 215.401 312.067 214.701 312.057 213.815C312.051 213.354 312.176 212.942 312.429 212.58C312.687 212.214 313.057 211.926 313.539 211.718C314.025 211.509 314.571 211.401 315.176 211.395C315.785 211.388 316.33 211.493 316.809 211.71C317.288 211.924 317.66 212.23 317.926 212.629C318.197 213.029 318.335 213.484 318.34 213.996L316.583 214.016C316.578 213.625 316.452 213.324 316.203 213.112C315.955 212.896 315.608 212.79 315.163 212.795C314.733 212.8 314.4 212.896 314.164 213.082C313.927 213.264 313.811 213.504 313.814 213.801C313.817 214.078 313.959 214.309 314.238 214.493C314.521 214.678 314.936 214.849 315.48 215.007C316.484 215.296 317.216 215.661 317.678 216.101C318.14 216.541 318.375 217.093 318.382 217.757C318.391 218.496 318.118 219.079 317.564 219.507C317.01 219.931 316.261 220.149 315.315 220.159C314.659 220.167 314.06 220.054 313.519 219.822C312.977 219.586 312.561 219.26 312.271 218.846C311.985 218.431 311.839 217.948 311.833 217.397L313.597 217.378C313.607 218.319 314.175 218.783 315.3 218.771C315.718 218.766 316.043 218.678 316.276 218.508C316.508 218.333 316.622 218.094 316.619 217.789Z" fill="white" fill-opacity="0.2"/>
<path d="M256.8 86.346L258.446 85.7305L260.514 91.2629C260.704 91.7715 260.759 92.2639 260.679 92.7402C260.601 93.2115 260.396 93.6299 260.066 93.9953C259.735 94.3607 259.312 94.6398 258.796 94.8327C257.951 95.1486 257.212 95.1808 256.58 94.9291C255.947 94.6738 255.483 94.1528 255.189 93.3662L256.847 92.7465C256.993 93.1381 257.183 93.3963 257.418 93.5214C257.652 93.6464 257.947 93.6426 258.302 93.51C258.616 93.3923 258.827 93.1907 258.933 92.9051C259.038 92.6194 259.017 92.2772 258.868 91.8784L256.8 86.346ZM266.619 89.9065L263.732 90.9857L263.799 92.8374L262.048 93.4919L262.036 84.3887L263.561 83.8184L269.54 90.6913L267.789 91.3458L266.619 89.9065ZM263.678 89.4858L265.676 88.739L263.554 86.1233L263.678 89.4858ZM272.07 87.4872L271.635 80.8003L273.468 80.1151L273.673 89.1464L271.955 89.7886L266.196 82.8335L268.023 82.1503L272.07 87.4872ZM280.692 84.646L277.805 85.7252L277.871 87.5769L276.12 88.2314L276.108 79.1282L277.634 78.5578L283.612 85.4308L281.861 86.0853L280.692 84.646ZM277.751 84.2253L279.748 83.4785L277.626 80.8627L277.751 84.2253Z" fill="white" fill-opacity="0.2"/>
</g>
<defs>
<linearGradient id="paint0_linear" x1="319.395" y1="166.329" x2="366.179" y2="166.329" gradientUnits="userSpaceOnUse">
<stop stop-color="white"/>
<stop offset="1" stop-color="white" stop-opacity="0.3"/>
</linearGradient>
<linearGradient id="paint1_linear" x1="34272.4" y1="11954.8" x2="38333.8" y2="11954.8" gradientUnits="userSpaceOnUse">
<stop stop-color="white"/>
<stop offset="1" stop-color="white" stop-opacity="0.3"/>
</linearGradient>
<clipPath id="clip0">
<rect width="500" height="400.162" fill="white"/>
</clipPath>
</defs>
</svg>
