<svg viewBox="0 0 75 75" fill="none" xmlns="http://www.w3.org/2000/svg">
<g clip-path="url(#clip0)">
<path d="M37.2656 0.203979L39.2672 3.96335C39.7172 4.6571 40.2047 5.27117 40.7789 5.84304C42.4547 7.51882 44.0461 9.27429 45.4758 11.154C48.8672 15.6071 51.1547 20.5524 52.7883 25.9009C53.768 29.168 54.3 32.5196 54.3398 35.9087C54.5039 46.0407 51.0305 54.7407 44.0273 61.9712C42.8836 63.1149 41.6602 64.1743 40.3477 65.1165C39.6539 65.1165 39.3258 64.5845 39.0398 64.0946C38.5078 63.197 38.182 62.1727 38.018 61.1532C37.7719 59.9274 37.6102 58.7016 37.6898 57.436V56.8641C37.6336 56.7423 37.0219 0.492261 37.2656 0.203979Z" fill="black"/>
<path d="M37.2656 0.0800217C37.1836 -0.0840408 37.1015 0.0401779 37.0195 0.119865C37.0594 0.940178 36.7734 1.67143 36.3258 2.36987C35.8336 3.06362 35.182 3.59565 34.5281 4.16752C30.8953 7.31283 28.0359 11.1121 25.7461 15.3613C22.6992 21.08 21.1289 27.2089 20.6836 33.6613C20.4797 35.9886 21.4195 44.2011 22.1531 46.5706C24.1547 52.8613 27.75 58.1324 32.407 62.7074C33.5508 63.8089 34.7742 64.8308 36.0398 65.8128C36.4078 65.8128 36.4476 65.4847 36.532 65.241C36.6933 64.7194 36.8163 64.1867 36.9 63.6472L37.7203 57.5206L37.2656 0.0800217Z" fill="#151713"/>
<path d="M39.2669 67.6055C39.3489 66.668 39.7989 65.8899 40.2888 65.1141C39.7966 64.9102 39.431 64.5047 39.145 64.0524C38.8989 63.6446 38.695 63.1547 38.5356 62.7047C37.9638 60.9891 37.8419 59.1891 37.6778 57.436V56.3743C37.4739 56.5383 37.4317 57.9258 37.4317 58.1321C37.3125 59.985 37.0666 61.8276 36.6958 63.6469C36.5739 64.3829 36.4919 65.1165 36.0396 65.7704C36.0396 65.8524 36.0396 65.9344 36.0794 66.0563C36.8153 68.2219 37.0169 70.4274 37.1411 72.675V73.4954C37.1411 74.475 37.1013 74.2688 37.9146 74.5969C38.2427 74.7188 38.6083 74.761 38.9364 75.0047C39.1825 75.0047 39.2224 74.8008 39.2224 74.6368L39.1005 73.2891V69.5297C39.0606 68.8735 39.1825 68.2219 39.2646 67.6079L39.2669 67.6055Z" fill="#C2BFBF"/>
</g>
<defs>
<clipPath id="clip0">
<rect width="75" height="75" fill="white"/>
</clipPath>
</defs>
</svg>
