<svg viewBox="0 0 75 75" fill="none" xmlns="http://www.w3.org/2000/svg">
<g clip-path="url(#clip0)">
<path fill-rule="evenodd" clip-rule="evenodd" d="M69.0839 58.421C65.0048 58.3074 61.8403 58.7255 59.1879 59.8412C58.4242 60.148 57.1987 60.148 57.0981 61.1092C57.5062 61.5125 57.5554 62.1726 57.9132 62.7316C58.5248 63.7462 59.5972 65.113 60.5656 65.822L63.8295 68.1545C65.8188 69.3702 68.063 70.0803 70.0008 71.2971C71.1235 72.0072 72.245 72.9196 73.3677 73.6808C73.9393 74.0864 74.2857 74.7465 75.0002 74.9987V74.8454C74.6435 74.3909 74.5406 73.7319 74.1851 73.2229L72.6531 71.7539C71.1749 69.7769 69.3377 68.0522 67.3484 66.6343C65.7159 65.5186 62.1467 63.9984 61.4836 62.1237L61.383 62.0101C62.5034 61.8965 63.8295 61.5023 64.9019 61.1978C66.6374 60.7433 68.2173 60.8433 70.0008 60.3877L72.4508 59.6776V59.2231C71.5327 58.3108 70.8697 57.094 69.9013 56.2327C67.3004 54.0025 64.4423 51.8222 61.4836 49.9975C59.9025 48.984 57.8618 48.3239 56.1789 47.4638C55.565 47.1594 54.5464 47.0071 54.1897 46.5004C53.2693 45.3869 52.7606 43.9156 52.0975 42.5965L47.9155 33.7765C46.9975 31.7996 46.435 29.8227 45.3146 27.998C40.0602 19.3802 34.3463 14.1595 25.573 9.03885C23.6866 7.97426 21.4424 7.51639 19.0565 6.95967L15.2312 6.75516C14.4137 6.40068 13.5986 5.43721 12.8841 4.98047C9.97679 3.1558 2.47822 -0.798047 0.334629 4.41239C-1.04299 7.70726 2.37532 10.951 3.53572 12.6246C4.40459 13.7903 5.52497 15.1082 6.1389 16.4262C6.48187 17.2874 6.5962 18.2009 6.95404 19.1132C7.76918 21.3435 8.53515 23.8283 9.60638 25.9074C10.178 26.972 10.7782 28.0889 11.4927 29.0512C11.9009 29.6193 12.6154 29.8624 12.7675 30.7748C12.0529 31.7894 12.0038 33.3084 11.5956 34.5775C9.75843 40.306 10.473 47.4025 13.0738 51.6199C13.8913 52.8868 15.8177 55.676 18.4311 54.6103C20.7268 53.698 20.2146 50.8087 20.8777 48.2739C21.032 47.6661 20.9291 47.2605 21.2344 46.8537V46.9673L23.3265 51.1746C24.9076 53.6582 27.6629 56.2441 29.9574 57.9688C31.1806 58.8811 32.1501 60.4536 33.6798 61.0103V60.8569H33.5792C33.2728 60.4025 32.8132 60.198 32.405 59.8435C31.487 58.9311 30.4672 57.8154 29.7527 56.802C27.6114 53.9638 25.725 50.8201 24.041 47.5763C23.2236 46.005 22.5091 44.2815 21.8483 42.7101C21.5396 42.1012 21.5396 41.1877 21.0309 40.8855C20.2649 41.9989 19.1445 42.9646 18.5809 44.3326C17.6114 46.5117 17.5108 49.1988 17.1541 51.9869C16.9483 52.038 17.0398 51.9869 16.9483 52.1005C15.3181 51.6961 14.7556 50.0214 14.1439 48.6034C12.6143 45.0041 12.3582 39.2255 13.6843 35.0683C14.041 34.0037 15.573 30.6577 14.9614 29.6443C14.6527 28.6808 13.6352 28.1241 13.0727 27.3629C12.4096 26.3994 11.6974 25.1837 11.2378 24.1191C10.0145 21.2787 9.40287 18.1372 8.07556 15.298C7.46164 13.98 6.39156 12.6109 5.52384 11.3952C4.55436 10.0262 3.48542 9.06271 2.71944 7.4414C2.4645 6.87332 2.10781 5.97121 2.51594 5.36223C2.61655 4.95662 2.82234 4.79414 3.22819 4.70325C3.89127 4.13517 5.77992 4.8555 6.443 5.15772C8.32936 5.91895 9.91048 6.62791 11.4916 7.69136C12.2061 8.19809 12.9721 9.16155 13.8901 9.41605H14.9625C16.595 9.77054 18.43 9.52967 19.9585 9.98414C22.6623 10.8476 25.11 12.1133 27.305 13.4835C33.9862 17.6907 39.4966 23.6726 43.219 30.8214C43.8307 31.9871 44.0856 33.0516 44.6481 34.2685C45.7205 36.7533 47.0466 39.2869 48.1156 41.7217C49.1879 44.1042 50.2077 46.539 51.7374 48.5159C52.5034 49.5805 55.5627 50.1372 56.9392 50.6951C57.9601 51.1496 59.5401 51.5586 60.4604 52.1153C62.1935 53.1799 63.9278 54.3967 65.5593 55.5624C66.3744 56.1691 68.9261 57.4371 69.0782 58.4483L69.0839 58.421ZM17.0661 14.3697C16.3613 14.3635 15.6588 14.4487 14.9762 14.6231V14.7367H15.0768C15.485 15.5479 16.1995 16.1058 16.7094 16.8159L17.8835 19.2495L17.9841 19.1359C18.6986 18.6292 19.0565 17.818 19.0565 16.6023C18.7501 16.2478 18.6998 15.8922 18.4448 15.5377C18.1384 15.031 17.4754 14.7765 17.0661 14.372V14.3697Z" fill="black"/>
</g>
<defs>
<clipPath id="clip0">
<rect width="75" height="75" fill="white"/>
</clipPath>
</defs>
</svg>
