<svg viewBox="0 0 64 64" fill="none" xmlns="http://www.w3.org/2000/svg">
<g clip-path="url(#clip0)">
<path fill-rule="evenodd" clip-rule="evenodd" d="M37.6826 0.124722C37.2215 0.124722 36.7907 0.222992 36.3976 0.351498C37.2404 0.918439 37.7015 1.65546 37.9359 2.49831C37.951 2.6117 37.985 2.69485 38.0001 2.81202C38.0152 2.92919 38.0379 3.00856 38.0379 3.11439C38.106 4.56953 37.66 4.75095 37.3425 5.60892C36.8625 6.71635 36.9947 7.90692 37.5692 8.85938C37.6218 8.98689 37.6877 9.10851 37.7658 9.22222C37.1384 5.04198 40.6269 4.41079 41.2695 3.10683C41.3186 1.96539 40.3775 1.20569 39.6329 0.676544C38.9223 0.24567 38.2723 0.109604 37.6826 0.109604V0.124722ZM42.9363 1.06962C42.8682 1.44758 42.9212 1.34931 42.8985 1.54963L42.8607 1.98051L42.7473 2.37737C42.7095 2.50965 42.6641 2.64194 42.615 2.77422L42.4336 3.15218C42.3845 3.22022 42.3504 3.28447 42.3013 3.34872L42.203 3.49991L41.9536 3.82873C41.8553 3.927 41.7722 4.04417 41.6512 4.1311C41.5303 4.21803 41.4547 4.32764 41.3375 4.41079C40.9898 4.67536 40.5929 4.8719 40.2301 5.12136C40.1167 5.20451 40.0033 5.27254 39.9013 5.37081C39.7894 5.44996 39.6844 5.53846 39.5876 5.63538C39.4742 5.73365 39.391 5.83192 39.2852 5.94909C39.1794 6.06626 39.1038 6.16453 39.0357 6.27791L38.809 6.62564L38.6275 7.0036L38.4953 7.38156L38.3819 7.79731C38.3667 7.86535 38.3667 7.9485 38.3441 8.01275C38.3214 8.077 38.3289 8.14504 38.3063 8.20929L38.2912 8.62505C38.2912 8.72332 38.2912 8.82159 38.3063 8.92742C38.3063 9.0597 38.3214 9.19199 38.3554 9.34317C38.3894 9.49436 38.4045 9.60774 38.4386 9.74003L38.5708 10.1369C38.6086 10.22 38.654 10.3032 38.6842 10.3637L34.882 8.88962L32.9657 8.39827L31.9225 8.14882C30.9277 7.95052 29.9236 7.80168 28.914 7.70282C28.8762 7.70282 28.8648 7.68771 28.8308 7.68771L25.8714 7.53652L23.7057 7.61967C22.6965 7.68771 21.6874 7.81621 20.682 7.98251L19.9374 8.1148L18.4482 8.44363L17.7037 8.64017L16.9931 8.95387L16.4488 9.20333C16.411 9.21844 16.3808 9.21844 16.3657 9.24112L15.9046 9.4679C15.8554 9.48302 15.8214 9.50569 15.7912 9.51703L15.2772 9.78161C15.1638 9.83074 15.0504 9.89499 14.9483 9.94791C14.8992 9.9857 14.8349 10.0122 14.7971 10.0311L14.3663 10.2805C14.2294 10.3561 14.0969 10.4394 13.9694 10.53L13.6406 10.7567L13.2777 11.0213L12.9981 11.2481C12.9603 11.2632 12.93 11.2972 12.8998 11.3161L12.6503 11.5316C12.6352 11.5694 12.6012 11.5807 12.5823 11.5996L12.2799 11.8793L11.9511 12.193L11.6714 12.4954C11.6336 12.5332 11.5883 12.5634 11.558 12.5936C11.4692 12.6972 11.3759 12.7968 11.2783 12.8922C11.2632 12.93 11.2292 12.9414 11.2103 12.9754L10.8323 13.3722L9.94036 14.2302C9.63799 14.4948 9.32806 14.7442 9.01436 14.9559L8.0241 15.5833C7.69528 15.7647 7.34377 15.931 6.98093 16.0746C6.6297 16.2241 6.27148 16.3565 5.90752 16.4715C5.21208 16.6227 4.50151 16.9024 3.88922 16.9515C3.75693 16.9515 3.60953 16.9893 3.47346 17.0006L3.0577 17.0989L2.66085 17.2501C2.52553 17.3037 2.39307 17.3643 2.26399 17.4315C2.1506 17.5147 2.01453 17.5827 1.90115 17.6583C1.78776 17.7339 1.67437 17.8397 1.57232 17.938C1.47027 18.0363 1.34554 18.1345 1.2435 18.2404L0.963805 18.5692C0.880654 18.7015 0.782384 18.8186 0.714352 18.9471C0.627849 19.0683 0.550771 19.1959 0.483796 19.3289L0.302375 19.7598L0.151191 20.1906L0.0680396 20.5875C0.0189048 20.784 0.0189048 20.9843 6.78136e-06 21.0788C-0.0188912 21.1733 6.78136e-06 21.2981 6.78136e-06 21.4152C-0.00320403 21.4874 0.00186856 21.5597 0.0151252 21.6307C0.0302436 21.744 0.0529212 21.8461 0.083158 21.9444L0.196546 22.2467C0.245681 22.3601 0.309934 22.4622 0.377967 22.5604L0.593404 22.8628L0.873095 23.1274C0.969981 23.2243 1.07493 23.3128 1.1868 23.392C1.58366 23.7397 1.67815 23.8531 2.19596 24.1176C2.27911 24.1668 2.36226 24.2008 2.46053 24.2499C2.50966 24.2991 2.50966 24.3142 2.52856 24.3482C2.54368 24.4805 2.5777 24.6128 2.61171 24.7451C2.64327 24.8812 2.68756 25.0141 2.744 25.1419L2.87628 25.4443C2.8914 25.4821 2.91408 25.5123 2.92542 25.5274L3.12196 25.8903L3.37141 26.238L3.6511 26.5517C3.74937 26.65 3.84764 26.7331 3.96481 26.8314L4.29363 27.0808C4.40702 27.164 4.52041 27.232 4.65648 27.2963C4.77875 27.3667 4.9064 27.4274 5.03822 27.4777C5.13649 27.5268 5.25365 27.5609 5.36704 27.5911C5.48043 27.6213 5.58248 27.6591 5.64673 27.6742C5.5976 28.5662 5.5787 29.4129 5.71476 29.7077C5.86595 30.0365 6.59163 29.0273 7.31732 27.8746C7.21905 29.016 7.15101 30.354 7.31732 30.7471C7.48362 31.1401 8.48899 29.8702 9.35074 28.4491C21.0675 25.7391 31.7638 33.8388 32.8863 45.2758C32.6709 43.4919 30.4749 42.4978 29.4658 42.7435C28.9744 43.9681 28.1278 45.5404 26.7709 46.5118C26.8843 45.4157 26.8352 44.2969 26.6046 43.2046C26.2349 44.7262 25.5356 46.1481 24.5561 47.3697C22.9875 47.4831 21.419 46.7272 20.5875 45.5858C20.5195 45.5366 20.5043 45.4346 20.4552 45.3703L20.3229 45.0226C20.2738 44.9092 20.2398 44.7958 20.2247 44.6749C20.2095 44.5539 20.2095 44.4481 20.2095 44.312V44.0626C20.2247 43.9492 20.2587 43.8358 20.2927 43.7149L20.4061 43.3671C20.4741 43.2538 20.5195 43.1404 20.6026 43.0194C20.8823 42.2635 20.8823 41.5832 20.3758 41.2052C20.2776 41.1372 20.1793 41.0918 20.0621 41.0389C19.9941 41.0238 19.9109 40.9898 19.8467 40.9709L19.7144 40.9217L19.3667 40.8386C19.2537 40.8059 19.1366 40.7894 19.019 40.7895C18.8989 40.7699 18.7777 40.7585 18.6561 40.7554C18.573 40.7554 18.4898 40.7706 18.4067 40.7706C18.284 40.7695 18.1618 40.7861 18.0438 40.8197L17.6961 40.884L17.3484 40.9973L17.0196 41.1485L16.7058 41.3148C12.8507 43.8283 15.1562 49.7055 17.7793 51.4139C16.789 51.5953 15.7761 51.8108 15.5002 52.0262C16.1805 52.4873 16.9213 52.8577 17.6999 53.1677L20.3758 53.9236C21.7478 54.2259 23.1349 54.3204 24.541 54.2373C28.1124 53.9758 31.4877 52.5029 34.1083 50.0623C36.7289 47.6218 38.4379 44.3598 38.9526 40.8159L39.0509 41.2468L39.202 42.1728L39.2701 42.6188L39.3079 43.1101L39.3457 43.6544V43.919C39.3457 44.0021 39.3608 44.1004 39.3608 44.1835C39.3608 44.2667 39.3457 44.3801 39.3457 44.4859V44.7127C39.3457 44.8261 39.3305 44.9281 39.3305 45.0415C39.3305 45.1058 39.3305 45.1738 39.3154 45.2569L39.3003 45.6198C39.2852 45.6689 39.2852 45.7181 39.2852 45.771L39.2361 46.1489C39.2361 46.1981 39.2361 46.2472 39.2209 46.3001L39.1567 46.7801V46.8179L39.0584 47.279L38.9601 47.7704L38.8279 48.2844L38.6956 48.7984L38.5293 49.3276L38.1664 50.2876L37.9699 50.7676L37.7431 51.2287C37.728 51.2779 37.7053 51.3119 37.694 51.3421C36.5866 53.557 34.9991 55.4619 33.0148 56.9435C32.8825 57.0266 32.7503 57.1249 32.618 57.2232C32.5802 57.261 32.5348 57.2723 32.5046 57.3063L32.1417 57.5558L32.1909 57.654H32.206L32.9014 57.5558H32.9166L34.2016 57.329C34.315 57.3139 34.4511 57.2799 34.5645 57.2458L34.7912 57.1967L35.139 57.1325L35.4413 57.0493C37.093 56.6524 38.6918 56.1044 40.2339 55.4619C37.607 59.0525 34.0845 61.9401 29.9685 63.8413C31.8696 63.709 33.7707 63.3953 35.6001 62.8661C42.2597 60.9007 47.8649 56.4219 51.2212 50.3859C50.5406 54.2128 49.0228 57.8421 46.7764 61.0141C48.3789 59.9558 49.8492 58.735 51.1909 57.3479C54.8903 53.4852 57.3185 48.5826 58.1492 43.2991C58.7161 45.907 58.8749 48.6057 58.6292 51.2665C70.5614 34.6212 59.6194 17.3635 55.0386 12.8204C55.0235 12.7826 55.0008 12.7713 55.0008 12.7373C54.963 12.9338 54.9516 13.1341 54.9365 13.3307C54.8874 13.7086 54.8382 14.0752 54.7702 14.4381C54.7022 14.8009 54.5888 15.1638 54.4905 15.5342C54.3923 15.9046 54.2411 16.2447 54.0937 16.5924C53.9463 16.9402 53.78 17.2728 53.6023 17.6016C53.4201 17.9249 53.2221 18.239 53.0089 18.5427C52.7935 18.8564 52.5629 19.155 52.3286 19.4347C52.0819 19.7224 51.8221 19.9986 51.55 20.2624C51.3837 20.4136 51.2363 20.5421 51.07 20.6782L50.692 21.007C50.3968 21.2412 50.0876 21.457 49.766 21.6533C49.4504 21.8569 49.125 22.0449 48.7909 22.2165C48.4432 22.3828 48.0954 22.5302 47.7477 22.6776C47.3957 22.8108 47.0375 22.9268 46.6743 23.0253C46.3115 23.1236 45.9297 23.2068 45.5669 23.2748C45.204 23.3428 44.811 23.3731 44.4443 23.4071C44.1798 23.4222 43.9152 23.4449 43.6884 23.4449C43.3105 23.4449 42.9325 23.4071 42.5659 23.3768C42.1993 23.3466 41.81 23.2937 41.4396 23.2105C41.0645 23.1427 40.6945 23.0492 40.3321 22.9308H40.317C40.6799 22.893 41.0427 22.8628 41.4131 22.7986C41.7835 22.7343 42.1577 22.6474 42.5205 22.5491C42.8834 22.4508 43.2462 22.3337 43.5939 22.2014C43.9417 22.0691 44.3045 21.899 44.6371 21.7403C44.9759 21.5751 45.3063 21.3935 45.6274 21.196C45.9411 20.9806 46.2548 20.7651 46.5534 20.5346C46.8495 20.3041 47.131 20.0555 47.3962 19.79C47.6759 19.5405 47.9254 19.2608 48.1748 18.9812C48.4243 18.7015 48.6548 18.3878 48.8703 18.0892C48.9081 18.04 48.9383 17.9758 48.9685 17.9229L49.4485 17.1669C49.63 16.8381 49.7963 16.5055 49.9399 16.1578C50.0835 15.8101 50.2196 15.4623 50.3367 15.0995C50.4539 14.7367 50.5333 14.3889 50.6164 14.0261C50.6996 13.6633 50.7487 13.2815 50.7827 12.9187C50.8168 12.5558 50.847 12.1628 50.847 11.7961C50.847 11.5316 50.8319 11.267 50.8092 11.0402C50.7714 10.6623 50.726 10.2956 50.6769 9.93279C50.6111 9.55995 50.5279 9.1904 50.4275 8.82537C50.3141 8.47764 50.2007 8.1148 50.0646 7.76708C49.9285 7.41935 49.7622 7.07163 49.6035 6.74658C49.4448 6.42154 49.2407 6.08515 49.0366 5.77145C48.8325 5.45774 48.6057 5.15915 48.3751 4.86434L47.6192 4.02149C47.4796 3.88005 47.3359 3.74266 47.1883 3.60952C46.4477 3.0339 45.6809 2.49284 44.8903 1.98807C44.7769 1.92381 44.6749 1.87468 44.5615 1.82176C44.0172 1.47404 43.5032 1.29262 42.993 1.12632L42.9363 1.06962Z" fill="black"/>
</g>
<defs>
<clipPath id="clip0">
<rect width="64" height="64" fill="white"/>
</clipPath>
</defs>
</svg>
