<svg viewBox="0 0 116 75" fill="none" xmlns="http://www.w3.org/2000/svg">
<g clip-path="url(#clip0)">
<path d="M30.0154 42.4097C28.3766 44.2656 27.3376 45.3932 26.8981 45.7925C24.5495 48.0192 22.4038 49.1324 20.4617 49.1324C19.3776 49.1324 18.316 48.7372 17.2772 47.9474C16.2383 47.1573 15.4592 46.1335 14.9398 44.8764C14.4204 43.6195 14.1606 42.2009 14.1606 40.6205C14.1606 38.3939 14.6348 35.5566 15.5835 32.1083C16.9385 27.0802 17.6612 24.3866 17.7516 24.0274C17.7063 23.74 17.6837 23.4165 17.6837 23.0574C17.0515 23.4887 16.6224 23.8121 16.3965 24.0274C15.1317 25.3208 13.8895 26.793 12.67 28.4449C11.7213 29.8097 10.6147 31.5341 9.35016 33.6169C9.07911 36.2028 8.94346 38.7531 8.94346 41.2669C8.94346 43.2066 9.01116 45.146 9.14681 47.0853L0.948556 49.1324C0.316101 45.1101 0 41.2669 0 37.6034C0 35.3769 0.135653 33.114 0.406579 30.8157C0.677631 28.5172 1.17456 25.9309 1.89711 23.0574C2.39404 21.0465 3.0942 18.5325 3.99732 15.5155L13.4154 13.0373C12.828 15.336 12.3988 17.06 12.1279 18.2093C11.6311 20.1488 11.2246 21.9082 10.9083 23.4887C13.1668 20.185 15.4254 17.6345 17.6837 15.8389C19.4906 14.4023 21.1166 13.6837 22.5619 13.6837C23.375 13.6837 24.2107 13.9348 25.0689 14.4381C25.927 14.9408 26.5481 15.731 26.9321 16.8087C27.3161 17.8861 27.5079 19.179 27.5079 20.6873C27.5079 22.8421 27.1242 25.5001 26.356 28.6607C25.4527 32.2521 24.572 35.8438 23.7139 39.4355C23.7139 39.9384 23.8267 40.2433 24.0525 40.3512C24.2785 40.4591 24.5044 40.5127 24.7303 40.5127C25.6365 40.5127 26.9847 39.7599 28.7748 38.2536C28.6079 37.2169 28.5243 36.1381 28.5243 35.0175C28.5243 33.2935 28.6824 31.6418 28.9987 30.0613C29.3148 28.4812 29.7892 26.829 30.4215 25.105C31.5508 22.1599 33.1315 19.6459 35.1642 17.5625C37.1969 15.4795 39.3423 14.1509 41.6007 13.576C42.4139 13.4325 43.0462 13.3603 43.4979 13.3603C44.9883 13.3603 46.321 13.7555 47.4953 14.5456C48.6698 15.336 49.6409 16.629 50.4086 18.425C50.8605 19.5738 51.0864 20.7231 51.0864 21.8724C51.0864 23.6684 50.5218 25.428 49.3925 27.1522C48.5795 28.3733 47.4841 29.5228 46.1067 30.6004C44.7287 31.6778 43.3623 32.5753 42.0073 33.2935C41.0134 33.7964 39.6136 34.407 37.8065 35.1254C38.3939 37.0649 39.2294 38.6274 40.3134 39.8125C41.3976 40.9976 42.5494 41.5905 43.7689 41.5905C45.6209 41.5905 47.4727 40.8361 49.3247 39.3274C49.4112 39.2586 50.8256 37.8367 53.5681 35.0627C53.5836 34.7178 53.6032 34.3616 53.6272 33.9941C53.695 32.9525 53.8303 31.6778 54.0337 30.1693C54.1139 29.5746 54.1887 29.0298 54.2583 28.5352L64.0422 27.6063C63.8083 28.9064 63.5662 30.2452 63.3157 31.624C63.0222 33.2399 62.8754 34.5867 62.8754 35.6641C62.8754 37.3883 63.0901 38.5912 63.519 39.2738C63.9481 39.956 64.5693 40.2976 65.3824 40.2976C66.5567 40.2976 68.0926 39.5069 69.9894 37.927C70.8928 37.0582 71.6203 36.3603 72.1721 35.8337C72.1881 35.2551 72.2171 34.6419 72.2591 33.9941C72.327 32.9525 72.4625 31.6778 72.6658 30.1693C72.7456 29.5764 72.8205 29.0332 72.8898 28.5403L82.6737 27.6114C82.4402 28.9096 82.1982 30.2471 81.9481 31.624C81.6546 33.2399 81.5078 34.5867 81.5078 35.6641C81.5078 37.3883 81.7224 38.5912 82.1514 39.2738C82.5805 39.956 83.2015 40.2976 84.0145 40.2976C85.1889 40.2976 86.7249 39.5069 88.6218 37.927L90.0324 36.5721C89.9954 36.063 89.9769 35.5451 89.9769 35.0175C89.9769 33.2935 90.135 31.6418 90.4511 30.0613C90.7671 28.4812 91.2416 26.829 91.8739 25.105C93.0031 22.1599 94.5842 19.6459 96.617 17.5625C98.6493 15.4795 100.795 14.1509 103.053 13.576C103.866 13.4325 104.499 13.3603 104.95 13.3603C106.441 13.3603 107.773 13.7555 108.948 14.5456C110.122 15.336 111.094 16.629 111.861 18.425C112.313 19.5738 112.539 20.7231 112.539 21.8724C112.539 23.6684 111.974 25.428 110.845 27.1522C110.032 28.3733 108.937 29.5228 107.559 30.6004C106.181 31.6778 104.815 32.5753 103.46 33.2935C102.466 33.7964 101.066 34.407 99.259 35.1254C99.8463 37.0649 100.682 38.6274 101.766 39.8125C102.85 40.9976 104.002 41.5905 105.221 41.5905C107.073 41.5905 108.925 40.8361 110.777 39.3274C110.868 39.2556 112.403 37.7113 115.385 34.6945V39.5431C115.114 39.8303 114.029 41.0516 112.132 43.2066C110.732 44.7867 109.58 45.9 108.677 46.5466C106.418 48.1271 103.934 48.9171 101.224 48.9171C99.4171 48.9171 97.8137 48.5757 96.4135 47.8937C95.0133 47.2109 93.7259 46.0078 92.5514 44.2839C91.8257 43.2512 91.253 42.09 90.8343 40.8001C88.8427 43.0893 87.3146 44.7175 86.2504 45.6847C83.8564 47.8395 81.6883 48.9171 79.7462 48.9171C78.656 48.9171 77.776 48.8054 76.7648 48.0552C75.0486 46.9058 73.8517 45.4153 73.174 43.5837C72.838 42.6752 72.5853 41.665 72.4159 40.5536C70.3194 42.9729 68.7202 44.6831 67.618 45.6847C65.2241 47.8395 63.0561 48.9171 61.1139 48.9171C60.0235 48.9171 59.1439 48.8054 58.1326 48.0552C56.4162 46.9058 55.2194 45.4153 54.5416 43.5837C54.1326 42.4775 53.847 41.2208 53.6851 39.8131C53.2133 40.3354 52.2118 41.4663 50.6798 43.2066C49.2795 44.7867 48.1276 45.9 47.2242 46.5466C44.9658 48.1271 42.4817 48.9171 39.7714 48.9171C37.9648 48.9171 36.3611 48.5757 34.9611 47.8937C33.5606 47.2109 32.2734 46.0078 31.099 44.2839C30.6889 43.7002 30.3277 43.0755 30.0154 42.4097ZM43.6336 22.7345C43.6785 22.4473 43.701 22.0161 43.701 21.4415C43.701 19.5738 43.2042 18.6403 42.2106 18.6403C42.075 18.6403 41.8267 18.7122 41.4652 18.8554C40.11 19.3585 39.0487 20.7231 38.281 22.95C37.513 25.1767 37.1291 27.5114 37.1291 29.9536C39.0262 29.1636 40.4039 28.3733 41.2621 27.5831C42.6623 26.3622 43.4528 24.7458 43.6336 22.7345ZM52.9835 23.0574L54.3384 14.5456L57.1163 14.3304L59.7589 2.80121L69.7863 0L66.9407 13.576L71.4802 13.253L70.2606 21.3337C64.5034 21.9521 58.7439 22.5187 52.9835 23.0574ZM71.6157 23.0574L72.9709 14.5456L75.7485 14.3304L78.3912 2.80121L88.4184 0L85.5729 13.576L90.1126 13.253L88.893 21.3337C83.117 21.9543 77.3161 22.5246 71.6157 23.0574ZM105.086 22.7345C105.131 22.4473 105.154 22.0161 105.154 21.4415C105.154 19.5738 104.657 18.6403 103.663 18.6403C103.528 18.6403 103.279 18.7122 102.918 18.8554C101.563 19.3585 100.501 20.7231 99.7333 22.95C98.9656 25.1767 98.5815 27.5114 98.5815 29.9536C100.479 29.1636 101.856 28.3733 102.715 27.5831C104.115 26.3622 104.905 24.7458 105.086 22.7345Z" fill="#1F1A17"/>
<path d="M5.854 74.7923H6.89826V69.0367H9.91228V67.678H6.89826V63.4509H10.1614V62.0734H5.854V74.7923ZM16.4245 74.7923H17.457V69.282H18.4299C18.7404 69.2978 19.0014 69.3891 19.2131 69.5588C19.4228 69.7256 19.5948 69.9897 19.7293 70.3451C19.8618 70.7037 19.9667 71.1723 20.0438 71.7542C20.1506 72.5499 20.2494 73.2072 20.3365 73.7261C20.4235 74.2451 20.5006 74.6005 20.5659 74.7923H21.6338C21.5528 74.5438 21.4618 74.1225 21.361 73.5279C21.262 72.9336 21.1473 72.1913 21.0168 71.3013C20.9239 70.6377 20.7815 70.0872 20.5916 69.6501C20.4018 69.2128 20.1545 68.9078 19.8539 68.7348V68.6781C20.1348 68.5272 20.386 68.3039 20.6113 68.0083C20.8348 67.7159 21.0149 67.354 21.1453 66.9264C21.2779 66.4956 21.3451 66.0048 21.349 65.4513C21.3471 64.948 21.2918 64.4889 21.1809 64.0706C21.0721 63.6555 20.9179 63.3032 20.7201 63.017C20.4809 62.6679 20.1723 62.4069 19.7946 62.2369C19.4188 62.0641 18.956 61.9791 18.4063 61.9791C18.1709 61.9791 17.9356 61.9916 17.6982 62.0137C17.4609 62.0357 17.2315 62.0671 17.0139 62.108C16.7964 62.1458 16.6005 62.193 16.4245 62.2432V74.7923ZM17.457 63.3944C17.5459 63.3566 17.6765 63.3252 17.8465 63.2999C18.0185 63.2748 18.2282 63.2623 18.4774 63.2623C18.8433 63.2591 19.1637 63.3441 19.4406 63.5076C19.7155 63.6743 19.929 63.9321 20.0834 64.2782C20.2356 64.6273 20.3147 65.0739 20.3168 65.6211C20.3147 66.1086 20.2415 66.5332 20.0952 66.8918C19.9489 67.2534 19.7412 67.5333 19.4722 67.7347C19.2012 67.9328 18.8828 68.0334 18.513 68.0366H17.457V63.3944ZM31.7773 70.7917L32.6317 74.7923H33.7353L31.0059 62.0734H29.7718L27.0425 74.7923H28.1106L28.9412 70.7917H31.7773ZM29.1548 69.5085L29.938 65.8288C30.0211 65.4388 30.0942 65.0519 30.1575 64.6619C30.2228 64.275 30.2841 63.8945 30.3414 63.5264H30.3652C30.4226 63.8913 30.4858 64.2687 30.5511 64.6524C30.6164 65.0361 30.6935 65.4323 30.7805 65.8476L31.5755 69.5085H29.1548ZM46.5722 74.7923H47.5928L47.0943 62.0734H45.7772L44.3533 68.2252C44.1752 69.0242 44.015 69.779 43.8726 70.4867C43.7302 71.1944 43.6056 71.8705 43.4989 72.509H43.4751C43.3683 71.8517 43.2497 71.1661 43.1171 70.4584C42.9827 69.7507 42.8343 69.0054 42.6681 68.2252L41.3036 62.0734H39.9864L39.4286 74.7923H40.4136L40.6272 69.3387C40.6509 68.6907 40.6727 68.0397 40.6944 67.3761C40.7142 66.7155 40.732 66.074 40.7479 65.4481C40.7616 64.8254 40.7736 64.2466 40.7815 63.7152H40.8051C40.9179 64.4668 41.0504 65.2532 41.2047 66.074C41.3569 66.8918 41.5291 67.7535 41.7188 68.6593L43.0242 74.7169H43.8073L45.2195 68.5462C45.4212 67.6687 45.6031 66.8289 45.7692 66.0236C45.9334 65.2186 46.0877 64.4512 46.2281 63.7152H46.2519C46.2519 64.1084 46.2558 64.533 46.2637 64.9827C46.2716 65.4356 46.2815 65.901 46.2954 66.3822C46.3072 66.8635 46.3211 67.3415 46.3369 67.8195C46.3527 68.2977 46.3666 68.7599 46.3823 69.2065L46.5722 74.7923ZM58.0922 67.4704H54.9951V63.4509H58.282V62.0734H53.9508V74.7923H58.4599V73.4148H54.9951V68.8291H58.0922V67.4704ZM67.0727 74.7923L68.2118 68.1688C68.3107 67.6246 68.3978 67.115 68.4749 66.6433C68.552 66.1716 68.6192 65.7187 68.6766 65.2909C68.7359 64.86 68.7854 64.4354 68.8289 64.0171H68.8526C68.8882 64.4417 68.9297 64.8695 68.9812 65.3034C69.0306 65.7342 69.088 66.1872 69.1533 66.6558C69.2184 67.1245 69.2917 67.6309 69.3747 68.1688L70.3833 74.7923H71.4632L73.7297 62.0734H72.6735L71.6174 68.4895C71.4929 69.279 71.3743 70.0338 71.2655 70.7603C71.1567 71.4836 71.0598 72.1913 70.9767 72.8864H70.9529C70.8917 72.2133 70.8126 71.5089 70.7137 70.7696C70.6167 70.0338 70.5099 69.2852 70.3953 68.5272L69.4222 62.0734H68.3424L67.2744 68.4895C67.1359 69.3136 67.0094 70.0967 66.8946 70.8388C66.78 71.5811 66.689 72.27 66.6218 72.9052H66.598C66.5505 72.4932 66.4952 72.0498 66.4338 71.5718C66.3725 71.0936 66.3053 70.5968 66.2322 70.081C66.1609 69.5619 66.0838 69.04 66.0047 68.5083L65.0554 62.0734H63.9637L65.9928 74.7923H67.0727ZM82.734 61.8469C82.198 61.8502 81.7036 62.0074 81.2547 62.3219C80.8037 62.6364 80.414 63.0862 80.0819 63.6711C79.7496 64.2594 79.4925 64.9606 79.3105 65.7784C79.1266 66.5992 79.0337 67.5145 79.0317 68.5272C79.0337 69.4929 79.1206 70.3703 79.2947 71.1628C79.4688 71.9523 79.714 72.6349 80.0324 73.2072C80.3508 73.7797 80.7305 74.2198 81.1696 74.5313C81.6087 74.8395 82.0932 74.9967 82.6271 75C83.0366 75 83.4282 74.9055 83.798 74.7201C84.1678 74.5376 84.508 74.2607 84.8166 73.896C85.125 73.5312 85.394 73.0813 85.6214 72.5404C85.849 72.0027 86.0269 71.3798 86.1515 70.6723C86.276 69.9646 86.3394 69.1719 86.3413 68.3007C86.3394 67.3478 86.2544 66.4798 86.0862 65.6934C85.9181 64.9041 85.6768 64.2248 85.3604 63.6523C85.046 63.0767 84.6663 62.6333 84.2232 62.3219C83.7822 62.0104 83.2838 61.8502 82.734 61.8469ZM82.6984 63.1868C83.0425 63.1899 83.3511 63.2874 83.6239 63.4825C83.8989 63.6743 84.1363 63.9417 84.3399 64.2782C84.5436 64.6178 84.7137 65.0077 84.8482 65.4481C84.9826 65.8885 85.0835 66.3602 85.1507 66.8572C85.216 67.3573 85.2496 67.8636 85.2496 68.3762C85.2496 69.1027 85.1923 69.7853 85.0796 70.4205C84.9668 71.056 84.8008 71.6157 84.5832 72.1C84.3636 72.5845 84.0967 72.9649 83.7783 73.2418C83.4598 73.5154 83.0959 73.6538 82.6866 73.6601C82.3582 73.657 82.0596 73.5658 81.7906 73.3865C81.5217 73.2041 81.2843 72.9524 81.0767 72.6284C80.869 72.3046 80.6949 71.9239 80.5545 71.4931C80.4121 71.059 80.3054 70.5873 80.2322 70.0777C80.1609 69.5684 80.1234 69.04 80.1234 68.4895C80.1234 67.9328 80.157 67.3919 80.2262 66.873C80.2934 66.3539 80.3964 65.8696 80.5348 65.423C80.6712 64.9796 80.8433 64.5894 81.0489 64.2529C81.2547 63.9196 81.496 63.6585 81.7708 63.473C82.0457 63.2844 82.3543 63.1899 82.6984 63.1868ZM92.4621 74.7923H93.4945V69.282H94.4675C94.778 69.2978 95.039 69.3891 95.2507 69.5588C95.4604 69.7256 95.6324 69.9897 95.7669 70.3451C95.8994 70.7037 96.0043 71.1723 96.0814 71.7542C96.1882 72.5499 96.287 73.2072 96.3741 73.7261C96.4611 74.2451 96.5382 74.6005 96.6035 74.7923H97.6714C97.5904 74.5438 97.4994 74.1225 97.3986 73.5279C97.2996 72.9336 97.1849 72.1913 97.0544 71.3013C96.9615 70.6377 96.8191 70.0872 96.6292 69.6501C96.4393 69.2128 96.1921 68.9078 95.8915 68.7348V68.6781C96.1724 68.5272 96.4236 68.3039 96.6489 68.0083C96.8724 67.7159 97.0525 67.354 97.1829 66.9264C97.3155 66.4956 97.3827 66.0048 97.3866 65.4513C97.3847 64.948 97.3294 64.4889 97.2185 64.0706C97.1097 63.6555 96.9555 63.3032 96.7577 63.017C96.5185 62.6679 96.2099 62.4069 95.8322 62.2369C95.4564 62.0641 94.9936 61.9791 94.4439 61.9791C94.2085 61.9791 93.9732 61.9916 93.7358 62.0137C93.4985 62.0357 93.2691 62.0671 93.0514 62.108C92.834 62.1458 92.6381 62.193 92.4621 62.2432V74.7923ZM93.4945 63.3944C93.5835 63.3566 93.7141 63.3252 93.8841 63.2999C94.0561 63.2748 94.2658 63.2623 94.515 63.2623C94.8809 63.2591 95.2013 63.3441 95.4782 63.5076C95.7531 63.6743 95.9666 63.9321 96.121 64.2782C96.2732 64.6273 96.3523 65.0739 96.3543 65.6211C96.3523 66.1086 96.2791 66.5332 96.1328 66.8918C95.9865 67.2534 95.7788 67.5333 95.5098 67.7347C95.2388 67.9328 94.9204 68.0334 94.5506 68.0366H93.4945V63.3944ZM103.626 74.7923H104.658V69.9425L105.43 68.5462L108.052 74.7923H109.274L106.154 67.4704L109.049 62.0734H107.767L105.323 66.8477C105.222 67.0553 105.119 67.2723 105.012 67.4987C104.908 67.7252 104.801 67.9611 104.694 68.2064H104.658V62.0734H103.626V74.7923Z" fill="#1F1A17"/>
</g>
<defs>
<clipPath id="clip0">
<rect width="115.385" height="75" fill="white"/>
</clipPath>
</defs>
</svg>
