<svg viewBox="0 0 75 75" fill="none" xmlns="http://www.w3.org/2000/svg">
<path d="M34.3497 1.00032C36.2247 -0.0614004 38.6153 -0.0660879 40.4434 1.00032L68.4372 16.7808C70.188 17.7652 71.3598 19.7175 71.3434 21.7355V53.3761C71.3552 55.4784 70.0684 57.473 68.2216 58.4386L40.3778 74.1464C39.4255 74.6727 38.3496 74.9344 37.2619 74.9043C36.1742 74.8742 35.1145 74.5534 34.1927 73.9753L25.8372 69.1472C25.2677 68.8074 24.6278 68.5378 24.2247 67.987C24.5809 67.5089 25.2138 67.448 25.7294 67.237C26.8919 66.8667 27.9559 66.2995 29.0247 65.6995C29.2942 65.512 29.6247 65.5824 29.8825 65.7511L37.0075 69.8714C37.5161 70.1644 38.0317 69.7777 38.4677 69.5316L65.8075 54.1027C66.145 53.9386 66.3325 53.5823 66.3044 53.212V21.8761C66.3419 21.4542 66.1005 21.0699 65.7184 20.8988L37.945 5.25891C37.785 5.14821 37.5951 5.08871 37.4004 5.0883C37.2058 5.08788 37.0157 5.14656 36.8552 5.25657L9.12157 20.9292C8.74657 21.1003 8.48875 21.48 8.53563 21.9019V53.2378C8.50282 53.6081 8.69969 53.9573 9.03953 54.1167L16.4505 58.3003C17.8427 59.0503 19.5513 59.4722 21.0841 58.9214C21.7548 58.6686 22.3323 58.2168 22.739 57.6266C23.1458 57.0364 23.3624 56.3359 23.3598 55.6191L23.3669 24.4706C23.3341 24.0089 23.77 23.6269 24.2177 23.6738H27.7802C28.2489 23.662 28.6169 24.1589 28.5536 24.623L28.5466 55.9683C28.5489 58.7527 27.4052 61.7808 24.8294 63.1472C21.6559 64.7878 17.7325 64.4433 14.5966 62.8659L6.62782 58.4597C4.75282 57.5222 3.49422 55.4972 3.50594 53.3972V21.7566C3.51374 20.7282 3.79645 19.7206 4.32477 18.8383C4.85309 17.956 5.60779 17.231 6.51063 16.7386L34.3497 1.00032ZM42.4216 22.9331C46.4692 22.6988 50.8028 22.7784 54.445 24.773C57.2645 26.3011 58.8278 29.5074 58.8794 32.6433C58.7997 33.0652 58.3591 33.2995 57.9559 33.2691C56.7841 33.2667 55.6075 33.2855 54.4309 33.262C53.9317 33.2808 53.6434 32.8214 53.5802 32.3808C53.2427 30.8808 52.4247 29.3972 51.0138 28.673C48.8481 27.5878 46.3356 27.6417 43.9731 27.6652C42.2481 27.7589 40.3942 27.9066 38.9341 28.9191C37.8091 29.6878 37.4716 31.2628 37.8723 32.4863C38.2473 33.3839 39.2856 33.6722 40.1317 33.9394C45.0114 35.2144 50.1794 35.1113 54.9677 36.7683C56.9481 37.4527 58.8864 38.7839 59.5661 40.8581C60.452 43.6378 60.0653 46.9613 58.0895 49.1925C56.4864 51.03 54.152 52.005 51.82 52.5722C48.7192 53.2636 45.5036 53.28 42.3559 52.9706C39.3958 52.6331 36.3161 51.855 34.0309 49.8394C32.0763 48.1425 31.1247 45.4988 31.2184 42.9488C31.2419 42.5175 31.6708 42.2175 32.0856 42.2527H35.6013C36.0747 42.2198 36.4216 42.6277 36.445 43.073C36.663 44.4792 37.1997 46.0027 38.4466 46.823C40.8513 48.3745 43.8677 48.2667 46.6192 48.3113C48.8997 48.2105 51.4591 48.18 53.3223 46.6706C54.3067 45.8105 54.595 44.3738 54.3302 43.1363C54.0419 42.0909 52.9239 41.6058 51.9864 41.2613C47.17 39.7378 41.9434 40.2909 37.1739 38.5659C35.238 37.8816 33.3653 36.5878 32.6223 34.598C31.5841 31.7855 32.0598 28.3003 34.2466 26.1441C36.3559 23.9995 39.4497 23.1722 42.3794 22.8769L42.4216 22.9331Z" fill="black"/>
</svg>
