<svg viewBox="0 0 75 75" fill="none" xmlns="http://www.w3.org/2000/svg">
<path d="M37.4998 54.8053C57.4012 54.8053 73.5347 46.7411 73.5347 36.7933C73.5347 26.8455 57.4012 18.7813 37.4998 18.7813C17.5984 18.7813 1.46484 26.8455 1.46484 36.7933C1.46484 46.7411 17.5984 54.8053 37.4998 54.8053Z" fill="black"/>
<path d="M20.3739 39.0264C22.0103 39.0264 23.2319 38.7288 24.0048 38.1421C24.7695 37.5615 25.2976 36.5553 25.5745 35.1518C25.8326 33.8399 25.7342 32.924 25.2823 32.4296C24.8202 31.9248 23.8211 31.6687 22.3129 31.6687H19.6979L18.248 39.0266H20.3738L20.3739 39.0264ZM11.8203 48.0899C11.6989 48.0899 11.5837 48.0364 11.5065 47.9439C11.4683 47.8982 11.4409 47.8448 11.4261 47.7874C11.4113 47.73 11.4096 47.6702 11.421 47.6121L15.2632 28.1138C15.2813 28.0224 15.331 27.94 15.4039 27.8807C15.4768 27.8215 15.5682 27.7891 15.6627 27.7891H23.9436C26.5461 27.7891 28.4832 28.4848 29.7008 29.861C30.9249 31.2429 31.3029 33.1749 30.8243 35.6027C30.6295 36.5919 30.2945 37.5104 29.8287 38.3332C29.3621 39.1566 28.7458 39.9185 27.9963 40.5981C27.099 41.4264 26.0834 42.0271 24.9804 42.3805C23.8949 42.7293 22.501 42.9063 20.8371 42.9063H17.484L16.5264 47.7654C16.5084 47.8568 16.4587 47.9392 16.3859 47.9985C16.313 48.0578 16.2215 48.0902 16.1271 48.0902H11.8203V48.0899Z" fill="black"/>
<path d="M20.0333 32.07H22.3131C24.1333 32.07 24.7657 32.4639 24.9806 32.6987C25.337 33.0886 25.4043 33.9105 25.1752 35.0756C24.9178 36.3799 24.4406 37.3047 23.7567 37.8241C23.0566 38.3557 21.9184 38.6251 20.3741 38.6251H18.7416L20.0332 32.07H20.0333ZM23.9436 27.3877H15.6627C15.4738 27.3877 15.2909 27.4525 15.1451 27.571C14.9994 27.6895 14.9 27.8543 14.864 28.0372L11.0218 47.5357C10.9989 47.6519 11.0023 47.7717 11.0319 47.8864C11.0614 48.0011 11.1163 48.108 11.1927 48.1993C11.269 48.2907 11.3649 48.3642 11.4734 48.4147C11.582 48.4652 11.7005 48.4914 11.8205 48.4915H16.1268C16.3157 48.4915 16.4987 48.4267 16.6445 48.3082C16.7903 48.1897 16.8897 48.0248 16.9257 47.842L17.8193 43.3075H20.8371C22.5436 43.3075 23.9803 43.124 25.1068 42.7621C26.2651 42.3909 27.3312 41.7614 28.2744 40.8913C29.0546 40.1834 29.6985 39.3887 30.1841 38.5292C30.6697 37.6697 31.021 36.7106 31.2241 35.6794C31.728 33.1237 31.3187 31.0772 30.0075 29.5971C28.7092 28.1311 26.669 27.3878 23.9439 27.3878L23.9436 27.3877ZM17.7546 39.4279H20.3741C22.1102 39.4279 23.4035 39.1055 24.2532 38.4602C25.1028 37.8148 25.6762 36.7378 25.9741 35.2285C26.2589 33.7794 26.1292 32.7568 25.5848 32.1609C25.0404 31.5651 23.9491 31.2673 22.3133 31.2673H19.3628L17.7547 39.4278L17.7546 39.4279ZM23.944 28.1904C26.4352 28.1904 28.2526 28.8352 29.3949 30.1248C30.5372 31.4144 30.881 33.2148 30.4253 35.5261C30.2377 36.4782 29.9204 37.3487 29.4738 38.1375C29.0272 38.9263 28.4427 39.6483 27.7211 40.3026C26.8612 41.0963 25.906 41.6618 24.8548 41.9989C23.8037 42.3367 22.465 42.5048 20.8374 42.5048H17.1487L16.1274 47.6888H11.821L15.6627 28.1904H23.9438" fill="white"/>
<path d="M40.6984 42.906C40.5769 42.906 40.4618 42.8525 40.3846 42.7599C40.3074 42.6673 40.2758 42.5459 40.2991 42.4281L41.9986 33.8007C42.1603 32.9803 42.1204 32.3914 41.8865 32.1425C41.7432 31.9904 41.313 31.7353 40.0409 31.7353H36.9618L34.8249 42.581C34.8069 42.6725 34.7572 42.7549 34.6843 42.8142C34.6114 42.8735 34.5199 42.9059 34.4254 42.9059H30.153C30.093 42.9059 30.0337 42.8928 29.9794 42.8675C29.9252 42.8423 29.8772 42.8055 29.839 42.7598C29.8009 42.7142 29.7734 42.6607 29.7586 42.6034C29.7438 42.546 29.7421 42.4861 29.7536 42.428L33.5958 22.9297C33.6138 22.8383 33.6635 22.7559 33.7364 22.6967C33.8093 22.6374 33.9008 22.605 33.9952 22.605H38.2676C38.3276 22.605 38.3869 22.6181 38.4412 22.6434C38.4955 22.6686 38.5434 22.7054 38.5816 22.7511C38.6198 22.7967 38.6472 22.8502 38.662 22.9076C38.6768 22.9649 38.6785 23.0248 38.6671 23.0829L37.7399 27.789H41.0523C43.5758 27.789 45.2868 28.2278 46.2837 29.1305C47.3009 30.0514 47.6165 31.5238 47.2259 33.5078L45.4383 42.5813C45.4203 42.6728 45.3706 42.7552 45.2977 42.8145C45.2248 42.8737 45.1333 42.9061 45.0388 42.9061H40.6986L40.6984 42.906Z" fill="black"/>
<path d="M38.2673 22.2038H33.9949C33.806 22.2038 33.623 22.2686 33.4772 22.3871C33.3315 22.5056 33.232 22.6704 33.196 22.8533L29.3538 42.3515C29.3309 42.4677 29.3344 42.5875 29.3639 42.7022C29.3935 42.817 29.4484 42.9238 29.5248 43.0152C29.6011 43.1065 29.697 43.1801 29.8056 43.2306C29.9141 43.2811 30.0327 43.3073 30.1527 43.3073H34.4251C34.614 43.3073 34.797 43.2425 34.9428 43.124C35.0885 43.0055 35.1879 42.8406 35.224 42.6578L37.2969 32.1367H40.0407C41.3106 32.1367 41.5772 32.4043 41.5879 32.4158C41.6649 32.4974 41.7662 32.876 41.599 33.7241L39.8995 42.3515C39.8766 42.4677 39.8801 42.5875 39.9097 42.7022C39.9392 42.817 39.9941 42.9238 40.0705 43.0152C40.1468 43.1065 40.2427 43.1801 40.3513 43.2306C40.4598 43.2811 40.5784 43.3073 40.6984 43.3073H45.0386C45.2275 43.3073 45.4105 43.2425 45.5563 43.124C45.7021 43.0055 45.8015 42.8406 45.8375 42.6578L47.6252 33.5842C48.0447 31.4544 47.6858 29.8566 46.5591 28.835C45.4838 27.8611 43.6826 27.3876 41.0524 27.3876H38.2334L39.0666 23.1595C39.0895 23.0433 39.0861 22.9235 39.0565 22.8087C39.027 22.694 38.972 22.5871 38.8957 22.4957C38.8193 22.4044 38.7234 22.3308 38.6149 22.2803C38.5063 22.2298 38.3878 22.2036 38.2677 22.2036L38.2673 22.2038ZM38.2677 23.0063L37.2464 28.1902H41.0525C43.4474 28.1902 45.0993 28.6025 46.0086 29.4261C46.9178 30.2496 47.1899 31.5853 46.8267 33.4312L45.0391 42.5046H40.6988L42.3983 33.8774C42.5917 32.896 42.5206 32.2266 42.1848 31.8697C41.849 31.5128 41.1342 31.334 40.0411 31.334H36.6262L34.4254 42.5046H30.1529L33.9951 23.0063H38.2676" fill="white"/>
<path d="M53.9855 39.0264C55.622 39.0264 56.8436 38.7288 57.6164 38.1421C58.3811 37.5615 58.9093 36.5555 59.1862 35.1518C59.4444 33.8399 59.346 32.924 58.894 32.4296C58.4319 31.9248 57.4328 31.6687 55.9246 31.6687H53.3096L51.8596 39.0266H53.9854L53.9855 39.0264ZM45.4323 48.0899C45.3109 48.0899 45.1956 48.0364 45.1184 47.9439C45.0802 47.8982 45.0528 47.8448 45.038 47.7874C45.0232 47.7301 45.0214 47.6702 45.0328 47.6121L48.875 28.1138C48.8931 28.0224 48.9428 27.9399 49.0157 27.8807C49.0886 27.8215 49.1801 27.7891 49.2746 27.7891H57.5554C60.1582 27.7891 62.095 28.4848 63.3127 29.861C64.5368 31.2429 64.9146 33.1747 64.4362 35.6027C64.2411 36.5919 63.9063 37.5104 63.4404 38.3332C62.9738 39.1566 62.3575 39.9185 61.608 40.5981C60.7106 41.4264 59.695 42.0271 58.592 42.3805C57.5066 42.7293 56.1127 42.9063 54.4487 42.9063H51.0952L50.138 47.7654C50.12 47.8569 50.0703 47.9393 49.9974 47.9986C49.9245 48.0578 49.8329 48.0902 49.7385 48.0902H45.4321L45.4323 48.0899Z" fill="black"/>
<path d="M53.6455 32.07H55.9252C57.7454 32.07 58.3779 32.4639 58.5927 32.6987C58.9494 33.0886 59.0166 33.9105 58.7873 35.0754C58.5299 36.3798 58.0526 37.3047 57.3689 37.8241C56.6688 38.3557 55.5305 38.6251 53.9862 38.6251H52.3542L53.6455 32.07ZM57.5558 27.3877H49.2749C49.086 27.3877 48.903 27.4525 48.7573 27.571C48.6116 27.6895 48.5122 27.8543 48.4761 28.0372L44.6341 47.5357C44.6112 47.6519 44.6146 47.7717 44.6442 47.8864C44.6737 48.0011 44.7287 48.108 44.805 48.1993C44.8813 48.2907 44.9772 48.3642 45.0857 48.4147C45.1943 48.4652 45.3128 48.4914 45.4328 48.4915H49.7392C49.928 48.4915 50.111 48.4267 50.2568 48.3082C50.4026 48.1897 50.502 48.0248 50.538 47.842L51.4314 43.3075H54.4493C56.1558 43.3075 57.5924 43.124 58.719 42.7621C59.8773 42.3909 60.9434 41.7614 61.8868 40.8911C62.667 40.1834 63.3093 39.3887 63.7963 38.5292C64.2832 37.6697 64.6331 36.7106 64.8363 35.6794C65.3402 33.1236 64.9308 31.0771 63.6197 29.5969C62.3214 28.1311 60.2811 27.3877 57.5558 27.3877ZM51.3669 39.4279H53.9862C55.7223 39.4279 57.0157 39.1055 57.8653 38.4602C58.7149 37.8148 59.2884 36.7378 59.5862 35.2285C59.8713 33.7794 59.7415 32.7568 59.197 32.1609C58.6524 31.5651 57.5612 31.2673 55.9255 31.2673H52.9749L51.3669 39.4279ZM57.5562 28.1904C60.0474 28.1904 61.8647 28.8352 63.007 30.1248C64.1493 31.4144 64.4931 33.2148 64.0374 35.5261C63.8498 36.4782 63.5326 37.3487 63.086 38.1375C62.6393 38.9263 62.0549 39.6483 61.3333 40.3026C60.4734 41.0963 59.5181 41.6618 58.467 41.9989C57.4158 42.3367 56.0771 42.5048 54.4495 42.5048H50.7609L49.7396 47.6888H45.4332L49.2754 28.1905L57.5562 28.1904Z" fill="white"/>
</svg>
