<svg viewBox="0 0 190 200" fill="none" xmlns="http://www.w3.org/2000/svg">
<path d="M148.304 145.594C149.578 134.992 149.195 133.445 157.086 135.156L159.094 135.336C165.164 135.609 173.101 134.359 177.844 132.195C187.883 127.539 193.836 119.758 183.937 121.805C161.359 126.461 159.719 118.813 159.719 118.813C183.57 83.4219 193.547 38.5 184.929 27.5078C161.461 -2.49218 120.828 11.6953 120.148 12.0703L119.929 12.1094C115.476 11.1719 110.554 10.625 104.851 10.5469C94.6326 10.3906 86.8826 13.2266 80.992 17.6875C80.992 17.6875 8.51541 -12.1719 11.8826 55.2422C12.6013 69.5859 32.4295 163.836 56.1013 135.32C64.7654 124.898 73.1248 116.094 73.1248 116.094C77.2654 118.852 82.242 120.258 87.4529 119.75L87.8592 119.406C87.7389 120.757 87.7941 122.117 88.0232 123.453C81.9295 130.266 83.7263 131.461 71.5388 133.969C59.2107 136.508 66.4607 141.031 71.1795 142.219C76.9138 143.656 90.1795 145.688 99.1482 133.141L98.7888 134.57C101.179 136.484 101.015 148.32 101.367 156.773C101.719 165.227 102.273 173.125 104 177.773C105.726 182.422 107.75 194.414 123.765 191.055C137.148 188.187 147.383 184.055 148.32 145.664" fill="black"/>
<path d="M148.304 145.594C149.578 134.992 149.195 133.445 157.086 135.156L159.094 135.336C165.164 135.609 173.101 134.359 177.844 132.195C187.883 127.539 193.836 119.758 183.937 121.805C161.359 126.461 159.719 118.813 159.719 118.813C183.57 83.4219 193.547 38.5 184.929 27.5078C161.461 -2.49218 120.828 11.6953 120.148 12.0703L119.929 12.1094C115.476 11.1719 110.554 10.625 104.851 10.5469C94.6326 10.3906 86.8826 13.2266 80.992 17.6875C80.992 17.6875 8.51541 -12.1719 11.8826 55.2422C12.6013 69.5859 32.4295 163.836 56.1013 135.32C64.7654 124.898 73.1248 116.094 73.1248 116.094C77.2654 118.852 82.242 120.258 87.4529 119.75L87.8592 119.406C87.7389 120.757 87.7941 122.117 88.0232 123.453C81.9295 130.266 83.7263 131.461 71.5388 133.969C59.2107 136.508 66.4607 141.031 71.1795 142.219C76.9138 143.656 90.1795 145.688 99.1482 133.141L98.7888 134.57C101.179 136.484 101.015 148.32 101.367 156.773C101.719 165.227 102.273 173.125 104 177.773C105.726 182.422 107.75 194.414 123.765 191.055C137.148 188.187 147.383 184.055 148.32 145.664" stroke="black" stroke-width="5.3725"/>
<path d="M183.867 121.875C161.289 126.531 159.648 118.883 159.648 118.883C183.5 83.4922 193.476 38.5703 184.867 27.5781C161.398 -2.42188 120.766 11.7734 120.086 12.1406L119.867 12.1797C114.904 11.1839 109.858 10.6581 104.797 10.6094C94.578 10.4531 86.828 13.2891 80.9374 17.75C80.9374 17.75 8.45305 -12.1094 11.828 55.3047C12.5468 69.6484 32.3749 163.898 56.0468 135.383C64.7655 124.898 73.1249 116.094 73.1249 116.094C77.2655 118.852 82.2421 120.258 87.4531 119.75L87.8593 119.406C87.7399 120.757 87.7951 122.117 88.0234 123.453C81.9296 130.266 83.7265 131.461 71.539 133.969C59.2109 136.508 66.4609 141.031 71.1796 142.219C76.914 143.656 90.1796 145.687 99.1484 133.141L98.789 134.57C101.18 136.484 102.851 147.016 102.57 156.562C102.289 166.109 102.101 172.656 103.976 177.781C105.851 182.906 107.726 194.422 123.742 191.062C137.125 188.195 144.055 180.75 145.031 168.359C145.719 159.547 147.266 160.844 147.375 152.969L148.625 149.234C150.055 137.281 148.859 133.43 157.101 135.227L159.109 135.406C165.18 135.68 173.125 134.43 177.781 132.266C187.82 127.609 193.773 119.828 183.875 121.875H183.867Z" fill="black"/>
<path d="M120.078 11.7734C117.578 12.5547 160.422 -3.89062 184.781 27.2266C193.375 38.2188 183.414 83.1406 159.562 118.531M100.109 128.648C99.4842 150.883 100.265 173.273 102.437 178.648C104.609 184.023 109.273 194.664 125.297 191.242C138.68 188.375 143.555 182.82 145.664 170.563L150.609 131.367L100.109 128.648ZM80.9061 17.1875C80.9061 17.1875 8.37485 -12.4687 11.7499 54.9453C12.4686 69.2891 32.2967 163.539 55.9686 135.023C64.6092 124.609 72.4217 116.461 72.4217 116.461L80.9061 17.1875Z" stroke="white" stroke-width="1.79" stroke-linecap="round" stroke-linejoin="round"/>
<path d="M159.57 118.516C159.57 118.516 161.133 126.172 183.789 121.5C193.687 119.453 187.726 127.234 177.695 131.891C169.461 135.719 150.992 136.695 150.687 131.422C149.906 117.789 160.406 121.93 159.648 118.516C158.961 115.437 154.258 112.422 151.164 104.891C148.453 98.3281 113.976 47.9375 160.726 55.4141C162.445 55.0625 148.539 10.8828 104.789 10.2422C61.0389 9.60157 62.4218 64.0313 62.4218 64.0313" stroke="white" stroke-width="1.79" stroke-linecap="round" stroke-linejoin="bevel"/>
<path d="M87.867 123.187C81.7733 130 83.5701 131.195 71.3826 133.703C59.0545 136.242 66.3045 140.766 71.0233 141.953C76.7576 143.391 90.0233 145.422 98.992 132.867C101.726 129.039 98.9764 122.945 95.2264 121.398C93.4139 120.648 90.992 119.711 87.8826 123.195L87.867 123.187Z" stroke="white" stroke-width="1.79" stroke-linejoin="round"/>
<path d="M87.4686 123.07C86.8436 119.063 88.7811 114.305 90.8514 108.727C93.9608 100.367 101.133 92.0078 95.3983 65.4688C91.1249 45.7031 62.4296 61.3516 62.4296 64.0313C62.4296 66.7109 63.7264 77.625 61.9608 90.3203C59.6405 106.898 72.5077 120.914 87.3202 119.484" stroke="white" stroke-width="1.79" stroke-linecap="round" stroke-linejoin="round"/>
<path d="M80.6404 63.6328C80.5076 64.5469 82.3201 66.9922 84.6717 67.3203C87.0232 67.6484 89.031 65.7422 89.1638 64.8203C89.2967 63.8984 87.4842 62.8984 85.1326 62.5703C82.781 62.2422 80.7576 62.7266 80.6404 63.6328V63.6328Z" fill="white" stroke="white" stroke-width="0.5975"/>
<path d="M152.234 61.7656C152.359 62.6797 150.554 65.125 148.203 65.4531C145.851 65.7813 143.828 63.875 143.711 62.9531C143.594 62.0313 145.39 61.0313 147.742 60.7031C150.094 60.375 152.117 60.8594 152.234 61.7656Z" fill="white" stroke="white" stroke-width="0.2975"/>
<path d="M160.641 55.4297C161.031 62.6172 159.094 67.5 158.844 75.1485C158.484 86.2578 164.141 98.9766 155.617 111.711" stroke="white" stroke-width="1.79" stroke-linecap="round" stroke-linejoin="round"/>
</svg>
