<svg viewBox="0 0 192 285" fill="none" xmlns="http://www.w3.org/2000/svg">
<g clip-path="url(#clip0)">
<path d="M137.239 2.46267C176.681 0.77315 205.019 -1.58271 242.789 4.27708C280.56 10.1368 327.763 24.2123 351.883 56.8534C376.114 89.7878 377.057 141.187 357.354 183.412C337.65 225.636 297.299 258.685 250.087 272.585C203.08 286.584 149.416 281.534 107.162 258.409C64.9081 235.283 34.0645 194.082 17.6035 148.938C1.1424 103.794 -1.14087 54.6067 23.0462 29.6481C47.2332 4.68941 97.8906 3.95946 137.239 2.46267Z" fill="#E29587"/>
<path d="M151.84 9.6276C189.458 7.04256 216.511 4.05629 252.36 8.97342C288.21 13.8905 332.855 26.711 355.079 58.4213C377.4 90.4189 377.107 141.212 357.356 183.413C337.604 225.613 298.394 259.222 253.09 274.058C207.98 288.989 156.969 285.241 117.249 263.359C77.5286 241.476 49.0983 201.459 34.4622 157.211C19.8261 112.962 18.7915 64.3875 42.4142 39.152C66.037 13.9164 114.317 12.0199 151.84 9.6276Z" fill="#D66D75"/>
<path d="M75.8108 61.6216C77.3632 61.6216 78.6216 60.3632 78.6216 58.8108C78.6216 57.2584 77.3632 56 75.8108 56C74.2584 56 73 57.2584 73 58.8108C73 60.3632 74.2584 61.6216 75.8108 61.6216Z" fill="#E6E6E6"/>
<path d="M135.741 90.0097L134.338 91.4034L132.945 90L132.01 90.9291L133.403 92.332L132 93.7257L132.929 94.6607L134.332 93.2676L135.725 94.6704L136.661 93.7413L135.267 92.3384L136.67 90.9453L135.741 90.0097Z" fill="#E6E6E6"/>
<path d="M81.8108 164.622C83.3632 164.622 84.6216 163.363 84.6216 161.811C84.6216 160.258 83.3632 159 81.8108 159C80.2584 159 79 160.258 79 161.811C79 163.363 80.2584 164.622 81.8108 164.622Z" fill="#E6E6E6"/>
<path d="M180.741 201.01L179.338 202.403L177.945 201L177.01 201.929L178.403 203.332L177 204.726L177.929 205.661L179.332 204.268L180.725 205.67L181.661 204.741L180.267 203.338L181.67 201.945L180.741 201.01Z" fill="#E6E6E6"/>
</g>
<defs>
<clipPath id="clip0">
<rect width="192" height="285" fill="white"/>
</clipPath>
</defs>
</svg>
