<svg viewBox="0 0 64 64" fill="none" xmlns="http://www.w3.org/2000/svg">
<g clip-path="url(#clip0)">
<path d="M61.4917 46.8697C58.0763 48.6512 40.3853 55.9248 36.6188 57.8878C32.8522 59.8508 30.7602 59.8322 27.7843 58.4104C24.8083 56.9886 5.98227 49.3842 2.58897 47.7622C0.892312 46.9512 0.00326538 46.2691 0.00326538 45.6244V39.155C0.00326538 39.155 24.5148 33.8191 28.4731 32.399C32.4314 30.9789 33.8006 30.928 37.1702 32.1614C40.5397 33.3949 60.6739 37.0274 64.0011 38.2473V44.6267C64.0011 45.2664 63.2342 45.9841 61.4951 46.8731L61.4917 46.8697Z" fill="black"/>
<path d="M61.4917 40.3987C58.0763 42.1802 40.3853 49.4537 36.6187 51.4167C32.8522 53.3798 30.7602 53.3611 27.7843 51.9393C24.8083 50.5175 5.98227 42.9131 2.58896 41.2911C-0.804349 39.6691 -0.872216 38.5544 2.45832 37.2497L28.4714 27.1783C32.428 25.7599 33.7989 25.7073 37.1685 26.9408C40.538 28.1743 58.1221 35.173 61.4476 36.4115C64.773 37.6501 64.9037 38.6342 61.4883 40.4156L61.4917 40.3987Z" fill="#393939"/>
<path d="M61.4917 36.3199C58.0763 38.1014 40.3853 45.375 36.6188 47.338C32.8522 49.301 30.7602 49.2824 27.7843 47.8606C24.8083 46.4388 5.98227 38.8344 2.58897 37.2124C0.892312 36.4014 0.00326538 35.7193 0.00326538 35.0746V28.6052C0.00326538 28.6052 24.5148 23.2693 28.4731 21.8492C32.4314 20.4291 33.8006 20.3782 37.1702 21.6116C40.5397 22.8451 60.6739 26.4776 64.0011 27.6975V34.0769C64.0011 34.7166 63.2342 35.4343 61.4951 36.3233L61.4917 36.3199Z" fill="black"/>
<path d="M61.4917 29.8506C58.0763 31.6321 40.3853 38.9056 36.6187 40.8686C32.8522 42.8317 30.7602 42.813 27.7843 41.3912C24.8083 39.9694 5.98227 32.365 2.58896 30.743C-0.804349 29.121 -0.872216 28.0063 2.45832 26.7016L28.4714 16.6319C32.428 15.2118 33.7989 15.1609 37.1685 16.3944C40.538 17.6279 58.1221 24.6283 61.451 25.8448C64.7798 27.0613 64.9071 28.0674 61.4917 29.8489V29.8506Z" fill="#393939"/>
<path d="M61.4917 25.3799C58.0763 27.1614 40.3853 34.4349 36.6188 36.3997C32.8522 38.3644 30.7602 38.344 27.7843 36.9222C24.8083 35.5004 5.98227 27.896 2.58897 26.274C0.892312 25.463 0.00326538 24.781 0.00326538 24.1362V17.6635C0.00326538 17.6635 24.5148 12.3275 28.4731 10.9074C32.4314 9.48734 33.8006 9.43643 37.1702 10.6699C40.5397 11.9034 60.6739 15.5359 64.0011 16.7558V23.1352C64.0011 23.7749 63.2342 24.4925 61.4951 25.3816L61.4917 25.3799Z" fill="black"/>
<path d="M61.4917 18.9089C58.0763 20.6903 40.3853 27.9639 36.6187 29.9269C32.8522 31.89 30.7602 31.8713 27.7843 30.4495C24.8083 29.0277 5.98227 21.4233 2.58896 19.8013C-0.804349 18.1793 -0.872216 17.0646 2.45832 15.7599L28.4714 5.69022C32.428 4.27012 33.7989 4.21922 37.1685 5.45269C40.538 6.68616 58.1221 13.6865 61.451 14.9031C64.7798 16.1196 64.9071 17.1257 61.4917 18.9072V18.9089Z" fill="#393939"/>
<path d="M33.5987 16.2417L31.5933 12.9078L25.1901 12.3309L29.9679 10.6071L28.5342 7.96035L33.0066 9.7079L37.2244 8.32682L36.0843 11.0618L40.3836 12.6736L34.839 13.2505L33.5987 16.2417ZM22.9166 22.879L37.7453 20.6021L33.2662 27.1716L22.9166 22.879Z" fill="white"/>
<path d="M18.9193 20.485C23.2971 20.485 26.846 19.1094 26.846 17.4124C26.846 15.7154 23.2971 14.3398 18.9193 14.3398C14.5414 14.3398 10.9925 15.7154 10.9925 17.4124C10.9925 19.1094 14.5414 20.485 18.9193 20.485Z" fill="white"/>
<path d="M55.7163 16.9645L46.9446 20.4291L46.9378 13.4948L55.7163 16.9645Z" fill="#8B7A78"/>
<path d="M46.9463 20.4291L45.9961 20.8023L37.2312 17.3378L46.9412 13.4965L46.9463 20.4291Z" fill="#515151"/>
</g>
<defs>
<clipPath id="clip0">
<rect width="64" height="64" fill="white"/>
</clipPath>
</defs>
</svg>
