<svg viewBox="0 0 500 477" fill="none" xmlns="http://www.w3.org/2000/svg">
<g clip-path="url(#clip0)">
<path d="M346.447 331.529C364.898 329.618 378.897 313.712 378.26 294.622C377.625 275.534 361.717 260.263 342.629 260.263H341.357C321.631 260.9 306.361 277.443 306.998 297.167C307.635 306.712 311.451 314.984 317.178 320.71C295.545 363.343 262.459 394.521 212.83 420.609C179.107 438.425 144.113 444.788 109.119 440.335C80.4863 436.517 58.2168 423.792 44.2168 402.792C23.8574 371.614 21.9492 337.89 39.1289 304.167C51.2187 279.988 70.3047 262.171 82.3945 253.263C79.8496 244.991 76.0312 230.993 74.123 220.814C-18.1367 287.624 -8.5918 377.978 19.4043 420.609C40.4004 452.425 83.0312 472.15 130.115 472.15C142.84 472.15 155.564 470.876 168.291 467.697C249.734 451.788 311.453 403.429 346.447 331.529V331.529ZM458.432 252.628C410.074 195.997 338.812 164.82 257.369 164.82H247.189C241.463 153.366 229.373 145.73 216.012 145.73H214.738C195.016 146.366 179.746 162.909 180.381 182.636C181.018 201.724 196.924 216.995 216.012 216.995H217.283C231.281 216.359 243.371 207.45 248.461 195.361H259.914C308.271 195.361 354.082 209.359 395.441 236.72C427.254 257.718 450.16 285.079 462.885 318.165C473.701 344.89 473.064 370.978 461.611 393.249C443.797 426.972 413.893 445.425 374.443 445.425C348.992 445.425 324.814 437.788 312.088 432.062C305.09 438.425 292.363 448.605 283.455 454.97C310.816 467.695 338.813 474.695 365.535 474.695C426.617 474.695 471.793 440.97 488.973 407.247C507.424 370.341 506.15 306.712 458.432 252.628V252.628ZM135.205 342.343C135.842 361.433 151.748 376.702 170.836 376.702H172.109C191.834 376.068 207.104 359.523 206.467 339.798C205.832 320.708 189.924 305.439 170.836 305.439H169.564C168.291 305.439 166.381 305.439 165.111 306.073C139.023 262.806 128.207 215.722 132.025 164.818C134.568 126.64 147.295 93.552 169.564 66.1906C188.016 42.6477 223.646 31.1945 247.826 30.5598C315.27 29.2863 343.9 113.277 345.811 147.001C354.082 148.909 368.08 153.364 377.625 156.546C369.988 53.468 306.361 0.0187531 245.281 0.0187531C188.016 0.0187531 135.205 41.3781 114.207 102.462C84.9394 183.907 104.027 262.171 139.658 323.892C136.479 328.345 134.568 335.345 135.205 342.345V342.343Z" fill="black"/>
</g>
<defs>
<clipPath id="clip0">
<rect width="500" height="476.6" fill="white"/>
</clipPath>
</defs>
</svg>
