<svg viewBox="0 0 64 64" fill="none" xmlns="http://www.w3.org/2000/svg">
<g clip-path="url(#clip0)">
<path d="M48.432 2.83143H8.27459C5.57986 2.83143 3.39282 5.03799 3.39282 7.7132V52.0006C3.39282 54.6953 5.59938 56.8824 8.27459 56.8824H34.7338C34.4409 43.7211 38.9321 18.1797 48.4418 2.79237L48.432 2.83143Z" fill="#444444"/>
<path d="M46.9675 4.26667H8.27459C6.36094 4.26667 4.80853 5.82883 4.80853 7.73272V48.7884C13.5762 45.42 26.7277 42.5202 35.8273 42.6569C38.6326 29.6129 42.3586 16.784 46.9773 4.26667H46.9675Z" fill="#8A8A8A"/>
<path d="M57.805 1.38642C55.0517 -1.05446 51.7223 -0.0781099 48.432 2.83142L46.9675 4.2569C41.3437 10.2127 36.2276 21.265 34.5092 29.7104C35.1215 31.048 35.6053 32.4407 35.9542 33.8697L36.169 34.8461L36.3838 35.842C36.3838 35.842 36.335 35.6467 36.13 35.0609L35.9933 34.6703C35.9658 34.598 35.9365 34.5264 35.9054 34.4555C35.5344 33.6061 34.5385 31.7998 34.0796 31.0188C33.7244 32.0569 33.3891 33.1018 33.074 34.1529C34.3628 36.5156 35.1439 40.5577 35.1439 40.5577C35.1439 40.5577 35.0755 40.2941 34.7533 39.3861C34.4604 38.5757 33.0349 36.0665 32.703 35.4807C32.1172 37.6287 31.8926 39.0737 32.0976 39.4252C32.4882 40.1086 32.8787 41.3779 33.2204 42.5886C33.7477 44.7356 34.1777 46.9053 34.5092 49.0911L34.558 49.6964C34.4568 52.138 34.5057 54.5835 34.7045 57.0191C34.9584 60.0751 35.4368 62.7014 36.0421 64.1074L36.4522 63.8828C35.5735 61.11 35.2024 57.4877 35.3587 53.2992C35.6027 46.904 37.0673 39.1908 39.7913 31.1555C44.4095 18.9217 50.7753 9.17773 56.6139 4.53028C51.2928 9.33394 44.097 24.8775 41.949 30.6282C39.5375 37.0722 37.8288 43.1256 36.7939 48.9153C38.5709 43.4868 44.3118 41.1436 44.3118 41.1436C44.3118 41.1436 47.1432 37.6677 50.4238 32.6981L44.1263 34.3774L42.0955 35.2757C42.0955 35.2757 47.2702 32.122 51.7321 30.6868C57.8539 21.0502 64.5224 7.35194 57.805 1.37666" fill="#020202"/>
</g>
<defs>
<clipPath id="clip0">
<rect width="64" height="64" fill="white"/>
</clipPath>
</defs>
</svg>
