<svg viewBox="0 0 100 100" fill="none" xmlns="http://www.w3.org/2000/svg">
<g clip-path="url(#clip0)">
<path d="M23.586 74.6469C51.888 74.6469 67.3679 45.9259 67.3679 21.0194C67.3679 20.2034 67.3679 19.3913 67.3231 18.5792C70.3342 15.9123 72.9338 12.6101 75 8.82707C72.1916 10.3514 69.2125 11.351 66.162 11.7926C69.3742 9.43718 71.7783 5.73249 72.9269 1.36797C69.9064 3.56332 66.6018 5.11046 63.1559 5.94262C60.8358 2.92098 57.7674 0.92016 54.4255 0.249759C51.0836 -0.420642 47.6544 0.276755 44.6687 2.23403C41.6829 4.19131 39.307 7.29935 37.9087 11.0772C36.5103 14.855 36.1674 19.0921 36.9331 23.1327C30.8153 22.757 24.8305 20.8096 19.367 17.417C13.9035 14.0243 9.0836 9.2623 5.22012 3.43998C3.25239 7.5892 2.64968 12.501 3.53471 17.1754C4.41973 21.8498 6.72594 25.9353 9.98379 28.6002C7.53509 28.5112 5.13978 27.7021 3 26.2411V26.4797C3.00093 30.8313 4.23075 35.0486 6.48084 38.4162C8.73093 41.7837 11.8628 44.0943 15.3451 44.9559C13.0797 45.7126 10.7028 45.8233 8.39707 45.2792C9.38033 49.0243 11.2946 52.2993 13.8722 54.6462C16.4499 56.9931 19.5619 58.2945 22.773 58.3683C17.3242 63.6136 10.5932 66.4611 3.66299 66.4525C2.4387 66.4496 1.21561 66.3588 0 66.1805C7.03692 71.7119 15.2248 74.6459 23.586 74.6322" fill="black"/>
</g>
<defs>
<clipPath id="clip0">
<rect width="100" height="100" fill="white"/>
</clipPath>
</defs>
</svg>
