<svg viewBox="0 0 75 75" fill="none" xmlns="http://www.w3.org/2000/svg">
<g clip-path="url(#clip0)">
<path d="M0 37.4993V74.9993H75.0023V-0.00305176H0V37.4993ZM60.4418 34.511C62.3461 34.9868 63.7992 35.8329 65.1328 37.2134C65.8242 37.9516 66.8473 39.2969 66.9305 39.618C66.9539 39.7118 63.6926 41.9032 61.7156 43.1301C61.6453 43.177 61.3582 42.8688 61.0359 42.3919C60.0715 40.9856 59.0602 40.3798 57.5121 40.2731C55.2387 40.1184 53.7621 41.3091 53.7855 43.2966C53.7855 43.8801 53.8676 44.2247 54.1066 44.7028C54.607 45.7387 55.5363 46.3575 58.452 47.6208C63.8215 49.9294 66.1184 51.4528 67.5457 53.6208C69.1395 56.0372 69.498 59.895 68.4152 62.7637C67.2246 65.8833 64.2727 68.002 60.1184 68.7052C58.8328 68.9313 55.7848 68.8962 54.4043 68.6466C51.3926 68.111 48.5355 66.6227 46.773 64.6704C46.0816 63.9087 44.7375 61.92 44.8207 61.7759C44.8559 61.729 45.1664 61.538 45.5121 61.3352L48.2977 59.7298L50.4539 58.4794L50.9062 59.1473C51.5367 60.1118 52.9184 61.4325 53.7516 61.8731C56.1445 63.1352 59.4305 62.9559 61.0488 61.504C61.7402 60.8735 62.025 60.2184 62.025 59.254C62.025 58.3844 61.9195 58.0036 61.466 57.3497C60.8824 56.5177 59.6918 55.8145 56.3098 54.3497C52.4402 52.6833 50.7738 51.6473 49.2504 50.0044C48.3691 49.0516 47.5359 47.5282 47.1902 46.2544C46.9043 45.195 46.8328 42.5395 47.059 41.4684C47.8559 37.7184 50.6777 35.1227 54.75 34.3493C56.0719 34.0997 59.1445 34.1946 60.4406 34.5157L60.4418 34.511ZM42.8344 37.6399L42.8578 40.7102H33.0961V68.4485H26.1914V40.7102H16.4297V37.6985L16.5117 34.6048C16.5469 34.5579 22.4883 34.5345 29.6906 34.5462L42.798 34.5813L42.8344 37.6399Z" fill="black"/>
</g>
<defs>
<clipPath id="clip0">
<rect width="75" height="75" fill="white"/>
</clipPath>
</defs>
</svg>
