<svg viewBox="0 0 64 64" fill="none" xmlns="http://www.w3.org/2000/svg">
<path d="M64 32C64 49.672 49.672 64 32 64C14.328 64 0 49.672 0 32C0 14.328 14.328 0 32 0C49.672 0 64 14.328 64 32Z" fill="black"/>
<path d="M10.2399 27.728C7.87994 27.728 5.96594 29.64 5.96594 32.002C5.96594 34.364 7.87794 36.274 10.2399 36.274C12.6019 36.274 14.5139 34.36 14.5139 32C14.5139 29.64 12.5999 27.728 10.2399 27.728ZM40.7439 47.148C38.6999 48.348 37.9999 50.94 39.1799 52.982C40.3599 55.024 42.9699 55.726 45.0139 54.546C47.0579 53.366 47.7579 50.756 46.5779 48.712C45.3979 46.668 42.7859 45.972 40.7439 47.148ZM19.5199 32C19.5186 29.997 20.0001 28.0232 20.9238 26.2458C21.8475 24.4685 23.186 22.94 24.8259 21.79L21.7039 16.56C17.9087 19.0928 15.1768 22.9322 14.0279 27.348C15.3799 28.448 16.2399 30.12 16.2399 32C16.2399 33.88 15.3759 35.552 14.0279 36.652C15.1819 41.126 17.9639 44.944 21.7039 47.442L24.8279 42.21C23.188 41.06 21.8495 39.5315 20.9258 37.7542C20.0021 35.9768 19.5206 34.003 19.5219 32H19.5199ZM31.9999 19.52C35.1182 19.5202 38.1235 20.6878 40.424 22.7929C42.7245 24.898 44.1536 27.788 44.4299 30.894L50.5179 30.804C50.228 26.2485 48.2641 21.961 45.0039 18.766C43.3799 19.38 41.5039 19.286 39.8839 18.35C39.1123 17.906 38.4495 17.2952 37.944 16.5624C37.4385 15.8295 37.103 14.9931 36.9619 14.114C35.3999 13.68 33.7199 13.44 31.9999 13.44C29.0459 13.44 26.2539 14.134 23.7739 15.36L26.7419 20.68C28.3419 19.936 30.1219 19.52 31.9979 19.52H31.9999ZM31.9999 44.48C30.1199 44.48 28.3399 44.06 26.7439 43.32L23.7759 48.64C26.2559 49.868 29.0479 50.56 32.0019 50.56C33.6775 50.5595 35.3454 50.3321 36.9599 49.884C37.2399 48.168 38.2599 46.588 39.8799 45.648C41.4999 44.708 43.3799 44.62 44.9999 45.234C48.2601 42.039 50.224 37.7515 50.5139 33.196L44.4239 33.106C44.1477 36.211 42.7194 39.1002 40.4202 41.2051C38.1209 43.31 35.1172 44.4783 31.9999 44.48V44.48ZM40.7439 16.854C42.7879 18.054 45.3999 17.334 46.5779 15.294C47.7559 13.254 47.0579 10.638 45.0179 9.458C42.9779 8.278 40.3619 8.978 39.1819 11.024C38.0019 13.07 38.7019 15.678 40.7459 16.858L40.7439 16.854Z" fill="white"/>
</svg>
