<svg viewBox="0 0 75 75" fill="none" xmlns="http://www.w3.org/2000/svg">
<path d="M37.5 0C58.2029 0 75 16.7954 75 37.5C75 58.2046 58.2029 75 37.5 75C16.7971 75 0 58.2046 0 37.5C0 16.7954 16.7954 0 37.5 0Z" fill="black"/>
<path d="M63.0115 48.8664C62.7507 46.8098 61.0135 45.3919 58.7813 45.422C55.4506 45.4655 52.6567 47.1877 50.8058 48.3313C50.2 48.7126 49.5713 49.056 48.9231 49.3596C49.0401 47.6793 48.9398 45.4806 48.0704 43.0611C47.0137 40.1652 45.5958 38.3845 44.5809 37.3562C45.7513 35.6474 47.3614 33.1595 48.1138 29.3055C48.7826 26.0183 48.5619 20.9069 47.0722 18.0411C46.7679 17.4626 46.2612 17.0412 45.6242 16.8707C45.3634 16.7988 44.8718 16.6533 43.902 16.9292C42.439 13.9196 41.9324 13.5852 41.5445 13.3243C40.7336 12.8027 39.7788 12.689 38.881 13.02C37.6771 13.4547 36.6505 14.6134 35.6807 16.6684L35.2895 17.5512C33.4503 17.6816 30.5543 18.3471 28.1082 20.9955C27.8039 21.3299 27.2103 21.5741 26.5866 21.8065H26.6033C25.3293 22.2546 24.7507 23.2979 24.0401 25.1806C23.0536 27.8157 24.0686 30.4073 25.0684 32.086C23.7074 33.3016 21.8983 35.2428 20.9419 37.5151C19.7715 40.3241 19.6243 43.0745 19.6678 44.566C18.6546 45.6361 17.0929 47.6492 16.9173 49.9081C16.6833 53.0648 17.8303 55.2084 18.3386 55.9892C18.4781 56.2069 18.6382 56.4107 18.8168 56.5978C18.7582 56.9891 18.7449 57.4087 18.8335 57.8435C19.0224 58.8567 19.6595 59.6827 20.6292 60.201C22.5403 61.2142 25.2039 61.649 27.2604 60.619C27.9995 61.4015 29.3454 62.1539 31.7749 62.1539H31.9204C32.5423 62.1539 40.4476 61.7359 42.75 61.1674C43.5575 60.9879 44.3113 60.6207 44.9504 60.0957C46.4268 59.6325 50.5098 58.2431 54.3638 55.7518C57.0859 53.9861 58.0256 53.6082 60.0537 53.1167C62.0233 52.6385 63.254 50.8427 63.0082 48.8597L63.0115 48.8664ZM59.5672 50.9949C57.2497 51.5466 56.0777 52.0516 53.2102 53.9209C48.7358 56.8168 43.8418 58.1628 43.8418 58.1628C43.8418 58.1628 43.4372 58.7714 42.2635 59.0456C40.237 59.5372 32.6059 59.9586 31.9103 59.9719C30.0427 59.9886 28.9007 59.4937 28.5797 58.7263C27.6099 56.4089 29.9674 55.3956 29.9674 55.3956C29.9674 55.3956 29.4458 55.0779 29.1415 54.787C28.8656 54.5111 28.5763 53.961 28.4727 54.165C28.1115 55.0478 27.9209 57.2047 26.9511 58.1779C25.6185 59.5238 23.1005 59.0757 21.609 58.2949C19.9704 57.4254 21.7261 55.3856 21.7261 55.3856C21.7261 55.3856 20.8432 55.9073 20.1326 54.8338C19.4973 53.8473 18.902 52.1703 19.0625 50.0987C19.2364 47.7411 21.8715 45.4505 21.8715 45.4505C21.8715 45.4505 21.4084 41.961 22.9282 38.3845C24.3043 35.1274 28.0112 32.5057 28.0112 32.5057C28.0112 32.5057 24.8979 29.0613 26.0549 25.9614C26.8073 23.9349 27.1116 23.9483 27.3591 23.8614C28.2285 23.527 29.0679 23.1658 29.6899 22.4853C32.8032 19.1245 36.7709 19.7633 36.7709 19.7633C36.7709 19.7633 38.6536 14.045 40.3908 15.1585C40.9258 15.5063 42.852 19.79 42.852 19.79C42.852 19.79 44.9086 18.5862 45.1393 19.0376C46.385 21.4553 46.5271 26.0768 45.9787 28.8824C45.0524 33.5139 42.735 36.0052 41.8087 37.5702C41.5913 37.9314 44.3 39.0751 46.0054 43.8102C47.5838 48.1407 46.1793 51.774 46.4234 52.1787L46.482 52.279C46.482 52.279 48.2911 52.4244 51.926 50.1789C53.8656 48.9751 56.1679 47.6308 58.7897 47.604C61.3228 47.5605 61.4532 50.53 59.5421 50.9915L59.5672 50.9949Z" fill="white"/>
</svg>
